<svg width="91" height="89" viewBox="0 0 91 89" fill="none" xmlns="http://www.w3.org/2000/svg">
<path fill-rule="evenodd" clip-rule="evenodd" d="M85.7898 69.5801C89.4099 61.73 90.2398 53.4299 90.4098 44.97L90.3599 44.9299C90.4774 40.3149 90.1425 35.6995 89.3599 31.1499C87.8698 22.8298 85.1998 15.01 78.5398 9.21997C70.4198 2.18995 60.6698 0.699955 50.4199 0.969975C49.5717 1.02344 48.7474 1.27149 48.0104 1.69458C47.2734 2.11768 46.6437 2.70459 46.1699 3.40992C36.1198 16.3398 30.5198 31.0701 28.6099 47.22C27.2798 58.75 28.6898 70.0601 31.6099 81.22C32.8398 85.9199 34.8599 87.5701 39.7599 88.01C47.9843 88.824 56.2873 88.2253 64.3098 86.24C73.7899 83.8201 81.5298 78.9202 85.7898 69.5801ZM40.5099 69.3999C39.3082 64.9436 38.7128 60.3455 38.7399 55.73L38.7198 55.77C39.0298 37.98 45.3898 22.8001 58.2999 10.45C60.0798 8.75 62.5298 8.56006 64.0199 9.97998C65.7399 11.6599 65.7399 13.3201 63.7399 15.5601C62.9863 16.3938 62.2134 17.2087 61.4407 18.0234C59.2296 20.355 57.0214 22.6834 55.2799 25.4399C44.6899 42.1099 44.0098 59.4399 51.6099 77.4399C51.7036 77.6587 51.8213 77.8674 51.9388 78.0762C52.0846 78.335 52.2302 78.5933 52.3299 78.8701C53.1599 81.2002 52.3299 83.3799 50.3299 84.25C48.3299 85.1201 46.5599 84.3801 45.3299 82.0501C43.2375 78.0349 41.6199 73.7893 40.5099 69.3999ZM57.2799 63.3001C56.5327 60.6702 56.0668 57.9683 55.8899 55.24H55.8999C55.9399 42.3601 61.2098 32.8298 70.2098 25.1699C71.3799 24.1699 72.8199 23.3799 74.1399 24.96C75.4598 26.54 74.6498 27.6399 73.3298 28.74C66.9999 34.02 62.7098 40.51 61.4198 48.8101C60.4166 54.7825 61.2828 60.9187 63.8999 66.3799C64.0759 66.7517 64.2507 67.1248 64.4256 67.4978C64.7773 68.2483 65.1292 68.9985 65.4899 69.74C66.1298 71.04 66.0498 72.2698 64.6598 72.8799C64.0662 73.2078 63.3706 73.2993 62.7123 73.1362C62.054 72.9732 61.4817 72.5671 61.1099 72C59.3387 69.3438 58.0428 66.4002 57.2799 63.3001ZM5.53973 19.27C1.86975 27.6699 1.11975 36.5198 0.969727 44.1899H0.979736C1.00977 53.4099 1.57977 61.2297 4.48975 68.7197C6.00726 72.5149 8.37854 75.9092 11.4197 78.6397C11.6891 79.0015 12.0727 79.2615 12.5084 79.3774C12.944 79.4937 13.4061 79.4595 13.8198 79.2798C14.8098 78.7798 14.6797 77.8399 14.5397 76.9399C14.4839 76.5742 14.4265 76.2085 14.3691 75.8425C14.2208 74.8977 14.0723 73.9514 13.9498 73C12.3313 61.312 12.6082 49.4397 14.7698 37.8398C16.9596 26.4321 21.14 15.4988 27.1198 5.54004C27.1882 5.41553 27.2635 5.28833 27.3401 5.15894C27.8117 4.36304 28.3324 3.48438 27.6097 2.64991C26.7697 1.67969 25.6097 2.0398 24.6097 2.37989C15.9197 5.36988 9.31976 10.6499 5.53973 19.27Z" fill="white"/>
</svg>
