<svg viewBox="0 0 50 41.7" xmlns="http://www.w3.org/2000/svg" xmlns:xlink="http://www.w3.org/1999/xlink"><clipPath id="a"><path d="m0 0h50v41.7h-50z"/></clipPath><g clip-path="url(#a)"><path d="m47.14 0h-44.28a2.86 2.86 0 0 0 -2.86 2.86v36a2.86 2.86 0 0 0 2.86 2.84h44.28a2.86 2.86 0 0 0 2.86-2.85v-36a2.86 2.86 0 0 0 -2.86-2.85zm-2.71 2.75a1.83 1.83 0 1 1 -1.82 1.82 1.82 1.82 0 0 1 1.82-1.82zm-6.5 0a1.83 1.83 0 1 1 -1.83 1.82 1.83 1.83 0 0 1 1.83-1.82zm-6.5 0a1.83 1.83 0 1 1 -1.83 1.83 1.82 1.82 0 0 1 1.82-1.82m14.91 35.24h-42.68v-29.14h42.68z" fill="#394c60"/><path d="m17 34.9a2.62 2.62 0 0 1 2.93-1.17 2 2 0 0 0 2.52-1.22v-.06a2.09 2.09 0 0 0 -1.17-2.69 2.47 2.47 0 0 1 -1.4-2.67 2.41 2.41 0 0 1 2.34-2 2.13 2.13 0 0 0 0-4.25h-.06a2.51 2.51 0 0 1 -2.4-2 2.55 2.55 0 0 1 0-1 2.39 2.39 0 0 1 1.24-1.84 2.12 2.12 0 0 0 .91-2.8 2.08 2.08 0 0 0 -2.65-1.29 2.34 2.34 0 0 1 -1.65 0 2.89 2.89 0 0 1 -1.17-.91 2.73 2.73 0 0 1 -.44-2.15h-9.79c4.52 2.43 8.82 7.3 8.93 13.77a16.46 16.46 0 0 1 -9.07 15.38h11a2.48 2.48 0 0 1 -.07-3.1" fill="#3c9bd6"/><path d="m30.71 11.66a2.48 2.48 0 0 1 .62 3.07 2.6 2.6 0 0 1 -2.72 1.6 2 2 0 0 0 -2.32 1.57s0 .06 0 .09a2.09 2.09 0 0 0 1.54 2.48 2.46 2.46 0 0 1 1.77 2.43 2.4 2.4 0 0 1 -1.94 2.33 2.13 2.13 0 0 0 .72 4.19 2.51 2.51 0 0 1 2.68 1.63 2.7 2.7 0 0 1 .15 1 2.38 2.38 0 0 1 -1 1.95 2.12 2.12 0 0 0 -.47 2.92 3 3 0 0 0 1.17 1h13a15.91 15.91 0 0 1 -8.91-11.34 16.36 16.36 0 0 1 8.51-17.73h-13.27a2.07 2.07 0 0 0 .47 2.81" fill="#e74f38"/><path d="m34.46 38.41h-.38a.62.62 0 0 0 .38 0" fill="#3c9bd6"/></g></svg>