<svg width="70" height="71" viewBox="0 0 70 71" fill="none" xmlns="http://www.w3.org/2000/svg">
<path d="M34.8705 70.5588C32.7105 70.5588 30.5005 70.3188 30.2505 70.2988L28.2505 61.9087C25.678 61.2783 23.2141 60.2672 20.9404 58.9087L13.6205 63.4587C12.4305 62.4587 11.2804 61.4587 10.1904 60.4087C9.10687 59.3067 8.08217 58.1485 7.12048 56.9387L11.6605 49.6287C10.3047 47.3501 9.29375 44.8835 8.66052 42.3088L0.290527 40.3589C0.285805 40.3426 0.285805 40.3252 0.290527 40.3088C0.123833 38.791 0.0336997 37.2657 0.0205078 35.7388C0.0205078 34.1888 0.130537 32.6489 0.300537 31.1189L8.67053 29.1189C9.30751 26.5454 10.3182 24.0791 11.6705 21.7988L7.13049 14.4888C8.13049 13.2988 9.13049 12.1488 10.1305 11.0588C11.2313 9.97777 12.386 8.95305 13.5905 7.98877L20.9105 12.5288C23.1864 11.1748 25.6495 10.1639 28.2205 9.52881L30.2205 1.15869C31.7416 0.99173 33.2703 0.901596 34.8005 0.888672C36.3405 0.888672 37.8705 0.998701 39.4005 1.1687L41.4005 9.53882C43.9752 10.172 46.4419 11.183 48.7205 12.5388L56.0305 7.99878C56.6105 8.46878 58.1004 9.69883 59.4504 11.0488C60.5348 12.1495 61.5628 13.3043 62.5305 14.5088L57.9905 21.8188C59.3428 24.0992 60.3535 26.5652 60.9905 29.1387L69.3705 31.1387C69.7305 34.1914 69.7305 37.2761 69.3705 40.3289L60.9805 42.3289C60.3519 44.9051 59.3407 47.3723 57.9805 49.6487L62.5205 56.9688C61.5605 58.1554 60.5605 59.2953 59.5205 60.3887C58.4187 61.4755 57.2604 62.5037 56.0505 63.4688L48.7405 58.9287C46.4641 60.2889 43.9967 61.3002 41.4205 61.9287L39.4205 70.3088C38.7005 70.3788 36.7705 70.5588 34.8705 70.5588ZM34.7104 15.9287C32.1943 16.0189 29.7149 16.561 27.3905 17.5288C23.9739 18.9775 21.0471 21.3799 18.9604 24.4487C16.8011 27.5946 15.6502 31.323 15.6605 35.1387C15.6827 39.2251 17.0093 43.1977 19.4473 46.4773C21.8852 49.7569 25.3069 52.1723 29.2136 53.3711C33.1203 54.5699 37.3078 54.4895 41.1656 53.1418C45.0235 51.7942 48.3501 49.2493 50.6605 45.8787C51.5806 44.5085 52.3294 43.0309 52.8905 41.4788L42.9504 38.8088C42.2615 40.317 41.1721 41.6071 39.8005 42.5388C38.3168 43.5226 36.5807 44.0574 34.8005 44.0789C33.6042 44.0897 32.4178 43.8618 31.3105 43.4087C29.6988 42.7028 28.3142 41.5641 27.3105 40.1189C26.6426 39.1527 26.1739 38.063 25.9319 36.9136C25.6899 35.7642 25.6793 34.5778 25.9009 33.4243C26.1225 32.2708 26.5717 31.173 27.2224 30.1951C27.8731 29.2171 28.712 28.3787 29.6904 27.7288C30.9219 26.8942 32.3411 26.3779 33.8209 26.2261C35.3008 26.0742 36.7953 26.2918 38.1705 26.8589C39.7676 27.5295 41.1311 28.6566 42.0905 30.0989C42.3395 30.4787 42.5601 30.8764 42.7505 31.2888L52.6904 28.7288L52.4705 28.1687L52.2605 27.6387C50.8104 24.2227 48.4038 21.2988 45.3304 19.2188C42.1977 17.0877 38.4993 15.942 34.7104 15.9287Z" fill="white"/>
</svg>
