<svg width="24" height="26" viewBox="0 0 24 26" fill="none" xmlns="http://www.w3.org/2000/svg">
<path d="M16.8096 0.5C15.5553 0.525749 14.3362 0.919567 13.3038 1.63257C12.2715 2.34557 11.4716 3.34627 11.0034 4.51025C10.5352 5.67423 10.4194 6.95021 10.6705 8.17944C10.9216 9.40868 11.5284 10.5369 12.4155 11.4241C13.3027 12.3112 14.431 12.9181 15.6602 13.1692C16.8895 13.4203 18.1654 13.3044 19.3294 12.8362C20.4933 12.368 21.494 11.5682 22.207 10.5359C22.92 9.50357 23.3139 8.28438 23.3397 7.03003V0.5H16.8096Z" fill="#E2E41A"/>
<path d="M16.8104 0.5C15.5544 0.523523 14.333 0.916278 13.2986 1.62915C12.2642 2.34202 11.4624 3.3434 10.9933 4.50879C10.5242 5.67418 10.4084 6.95188 10.6604 8.18262C10.9124 9.41336 11.521 10.5427 12.4104 11.4299C16.0604 3.95993 19.9005 7.26 23.3405 0.5H16.8104Z" fill="#E8E947"/>
<path d="M21.1099 19.7701C21.0882 18.7217 20.7587 17.7027 20.1626 16.8399C19.5665 15.9772 18.73 15.3088 17.757 14.9176C16.7841 14.5264 15.7176 14.4296 14.6901 14.6395C13.6627 14.8494 12.7196 15.3567 11.9781 16.0982C11.2366 16.8398 10.7293 17.7827 10.5194 18.8102C10.3095 19.8376 10.4062 20.9041 10.7974 21.8771C11.1886 22.85 11.8571 23.6867 12.7199 24.2828C13.5826 24.8789 14.6015 25.2083 15.65 25.2301H21.1099V19.7701Z" fill="#E34E64"/>
<path d="M21.1097 19.7706C21.0865 18.7219 20.756 17.7031 20.1594 16.8404C19.5627 15.9777 18.726 15.309 17.753 14.9173C16.78 14.5255 15.7134 14.4277 14.6854 14.6363C13.6574 14.8448 12.7131 15.3506 11.9697 16.0906C18.2097 19.1506 15.4497 22.3505 21.1097 25.2305V19.7706Z" fill="#E55F74"/>
<path d="M0.5 18.9098C0.517826 18.0455 0.789306 17.2055 1.28064 16.4943C1.77197 15.783 2.46151 15.2319 3.26355 14.9093C4.06559 14.5867 4.94471 14.507 5.79169 14.6801C6.63867 14.8531 7.41613 15.2712 8.0274 15.8825C8.63868 16.4937 9.05684 17.2713 9.22986 18.1183C9.40288 18.9653 9.32312 19.8443 9.00055 20.6464C8.67798 21.4484 8.1268 22.1379 7.41553 22.6293C6.70426 23.1206 5.86429 23.392 5 23.4098H0.5V18.9098Z" fill="white"/>
<path d="M0.5 18.9101C0.524379 18.0497 0.800015 17.2151 1.29297 16.5095C1.78592 15.8038 2.47465 15.2579 3.27417 14.9389C4.07369 14.62 4.94905 14.542 5.79236 14.7145C6.63567 14.8871 7.41007 15.3027 8.02002 15.9101C2.88002 18.4301 5.16 21.0601 0.5 23.4401V18.9101Z" fill="white"/>
<path d="M5.7099 6.08984C6.4004 6.10175 7.07214 6.3164 7.64148 6.70728C8.21082 7.09815 8.65259 7.64798 8.9118 8.28809C9.17102 8.92819 9.23625 9.63024 9.0993 10.3071C8.96236 10.984 8.62931 11.6057 8.14166 12.0947C7.65401 12.5837 7.03332 12.9185 6.35681 13.0574C5.68031 13.1962 4.97786 13.1329 4.33704 12.8755C3.69621 12.6181 3.14527 12.1779 2.75281 11.6096C2.36035 11.0414 2.14372 10.3702 2.12988 9.67969V6.08984H5.7099Z" fill="#193661"/>
<path d="M5.71039 6.08984C6.17136 6.09895 6.62596 6.19869 7.04834 6.38354C7.47072 6.5684 7.85255 6.83454 8.172 7.16699C8.49145 7.49944 8.74229 7.89163 8.91016 8.32104C9.07802 8.75046 9.15968 9.20871 9.15039 9.66968C9.14802 10.5764 8.78879 11.4459 8.15039 12.0898C6.15039 7.98984 4.04039 9.79984 2.15039 6.08984H5.71039Z" fill="#304A71"/>
</svg>
