<svg width="43" height="43" viewBox="0 0 43 43" fill="none" xmlns="http://www.w3.org/2000/svg">
<path d="M38.2303 0.620117H4.5303C2.32116 0.620117 0.530273 2.41098 0.530273 4.62012V38.23C0.530273 40.4391 2.32116 42.23 4.5303 42.23H38.2303C40.4394 42.23 42.2303 40.4391 42.2303 38.23V4.62012C42.2303 2.41098 40.4394 0.620117 38.2303 0.620117Z" fill="#F2F2F2"/>
<path d="M12.1902 27.1099L11.4603 31.2998H6.74023L11.2402 10.0898H17.1702L21.0502 31.3298H16.3203L15.6302 27.1396L12.1902 27.1099ZM15.1902 23.3699L14.6503 19.3699C14.5003 18.1699 14.2103 15.8698 14.0303 14.5498H13.9603C13.7403 15.8698 13.4202 18.2399 13.2402 19.3699L12.6102 23.3699H15.1902Z" fill="#242B3B"/>
<path d="M23.5003 14.6099H19.8203V10.0898H32.1003V14.6296H28.3903V31.3098H23.5003V14.6099Z" fill="#242B3B"/>
<path d="M33.2197 31.5603C32.8709 31.5682 32.5239 31.5071 32.1987 31.3806C31.8735 31.2541 31.5764 31.0648 31.3246 30.8232C31.0728 30.5816 30.8713 30.2925 30.7314 29.9729C30.5916 29.6532 30.5163 29.309 30.5098 28.9602V28.8403C30.5111 28.4778 30.5838 28.1192 30.7237 27.7849C30.8636 27.4505 31.068 27.1469 31.3252 26.8916C31.5824 26.6362 31.8874 26.4338 32.2228 26.2963C32.5581 26.1589 32.9173 26.089 33.2798 26.0903C33.6252 26.0755 33.9702 26.129 34.2949 26.2478C34.6197 26.3665 34.9178 26.5479 35.1723 26.7819C35.4268 27.016 35.6327 27.2981 35.7781 27.6118C35.9235 27.9255 36.0056 28.2648 36.0198 28.6103C36.0297 28.6866 36.0297 28.7639 36.0198 28.8403C36.0524 29.5284 35.8106 30.2012 35.3475 30.7111C34.8844 31.2211 34.2378 31.5266 33.5497 31.5603H33.2197Z" fill="#3B8AC9"/>
<path d="M27.4506 41.1895H15.3105V42.4194H27.4506V41.1895Z" fill="#E84061"/>
</svg>
