<svg viewBox="0 0 47.11 50" xmlns="http://www.w3.org/2000/svg"><path d="m35.44 23.63a3.55 3.55 0 0 1 1 0 3.48 3.48 0 0 0 .05-2c-.24-1.19-.58-1.91-1.28-1.8s-.72 1-.47 2.16a4 4 0 0 0 .7 1.64z"/><path d="m29.47 24.57c.5.22.8.36.92.24s.05-.23-.06-.43a2.88 2.88 0 0 0 -1.29-1 3.47 3.47 0 0 0 -3.41.41c-.33.24-.65.58-.6.78s.06.12.18.14a20.5 20.5 0 0 1 2.33-.53 4.18 4.18 0 0 1 1.93.39z"/><path d="m28.47 25.14a2.42 2.42 0 0 0 -1.24.51.83.83 0 0 0 -.31.5.14.14 0 0 0 0 .12.18.18 0 0 0 .1 0 2 2 0 0 0 .48-.13 4 4 0 0 1 2.13-.14c.33 0 .48.06.55-.06s.05-.1 0-.2a1.88 1.88 0 0 0 -1.71-.6z"/><path d="m33.42 27.24a.8.8 0 0 0 1.08-.19c.16-.32-.07-.76-.51-1a.8.8 0 0 0 -1.08.19c-.16.34.09.76.51 1z"/><path d="m36.25 24.76c-.36 0-.65.39-.66.88s.27.89.63.9.65-.39.66-.88-.27-.89-.63-.9z"/><path d="m12.24 33.6c-.09-.11-.23-.07-.37 0a1.63 1.63 0 0 1 -.34 0 .75.75 0 0 1 -.61-.31 1.14 1.14 0 0 1 0-1l.08-.2a3.07 3.07 0 0 0 .23-2.74 2.43 2.43 0 0 0 -1.83-1.35 2.37 2.37 0 0 0 -2.05.74 2.91 2.91 0 0 0 -.76 2.47c0 .16.14.2.2.21s.34-.08.46-.42v-.11a3.26 3.26 0 0 1 .33-.77 1.39 1.39 0 0 1 .89-.62 1.48 1.48 0 0 1 1.1.21 1.41 1.41 0 0 1 .53 1.69 4 4 0 0 0 -.28 1.5 1.5 1.5 0 0 0 1.33 1.54 1.16 1.16 0 0 0 1.08-.54.22.22 0 0 0 .01-.3z"/><path d="m45.27 31.65c0-.07-.16-.59-.36-1.22a8.5 8.5 0 0 0 -.4-1.06 3.85 3.85 0 0 0 .7-2.81 3.6 3.6 0 0 0 -1-2 8.43 8.43 0 0 0 -3.65-1.81l-.93-.26s-.05-2.19-.09-3.12a10.94 10.94 0 0 0 -.41-2.74 7.3 7.3 0 0 0 -1.9-3.38c2.28-2.42 3.77-5.06 3.77-7.33-.06-4.36-5.41-5.68-12-2.92l-1.4.59-2.6-2.54c-7.52-6.57-31.06 19.6-23.53 25.95l1.64 1.4a8.13 8.13 0 0 0 -.46 3.73 7.41 7.41 0 0 0 2.54 4.73 7.69 7.69 0 0 0 5 2c2.92 6.75 9.61 10.9 17.46 11.14 8.42.25 15.48-3.7 18.45-10.8a15 15 0 0 0 1-4.72c.01-2-1.1-2.83-1.83-2.83zm-34.44 5.35a4.09 4.09 0 0 1 -.78.05 6.08 6.08 0 0 1 -5.57-5.05c-.3-3 1.24-5.31 3.95-5.86a5.06 5.06 0 0 1 1.14-.14c1.52.09 3.76 1.25 4.27 4.57.46 2.94-.26 5.93-3.01 6.43zm-2.83-12.7a6.45 6.45 0 0 0 -4.1 2.61 11.32 11.32 0 0 1 -1.74-1.68c-1.45-2.76 1.59-8.13 3.71-11.16 5.25-7.49 13.47-13.16 17.28-12.13.62.17 2.67 2.55 2.67 2.55a53.6 53.6 0 0 0 -7.34 5 33.33 33.33 0 0 0 -10.48 14.81zm26.68 11.55a.16.16 0 0 0 .08-.15.14.14 0 0 0 -.15-.13 17.8 17.8 0 0 1 -7.75-.79c.41-1.33 1.5-.85 3.15-.71a23.05 23.05 0 0 0 7.6-.83 17.3 17.3 0 0 0 5.68-2.82 11.73 11.73 0 0 1 .79 2.7 1.29 1.29 0 0 1 .83.16c.36.22.62.68.44 1.86a10.3 10.3 0 0 1 -2.88 5.67 12.12 12.12 0 0 1 -3.47 2.59 14.87 14.87 0 0 1 -2.27 1c-6 2-12.07-.2-14-4.8a6.29 6.29 0 0 1 -.39-1.08 9.53 9.53 0 0 1 2.1-9 .83.83 0 0 0 .27-.53 1 1 0 0 0 -.21-.51c-.78-1.13-3.48-3.05-2.94-6.78a5.07 5.07 0 0 1 4.92-4.44h.55c.94.05 1.77.17 2.55.21a5.15 5.15 0 0 0 3.86-1.29 3 3 0 0 1 1.48-.84 1.72 1.72 0 0 1 .56 0 1.81 1.81 0 0 1 1 .3c1.11.74 1.27 2.53 1.33 3.84 0 .75.12 2.56.15 3.08.07 1.19.39 1.36 1 1.57.35.12.68.2 1.17.34a6.6 6.6 0 0 1 2.87 1.35 1.84 1.84 0 0 1 .52 1c.18 1.26-1 2.83-4 4.25a20.53 20.53 0 0 1 -10.22 1.63l-1-.11c-2.24-.3-3.53 2.6-2.18 4.59.87 1.28 3.23 2.11 5.6 2.11 5.43 0 9.6-2.31 11.15-4.31l.12-.18c.08-.11 0-.18-.08-.11-1.33.9-6.91 4.31-12.98 3.31a8.05 8.05 0 0 1 -1.4-.38c-.53-.21-1.64-.72-1.77-1.86 4.86 1.51 7.92.09 7.92.09zm-17-21.85a22.1 22.1 0 0 1 6.23-5 .08.08 0 0 1 .1.11 6.07 6.07 0 0 0 -.57 1.41.08.08 0 0 0 .12.09 12.08 12.08 0 0 1 5.44-1.97.08.08 0 0 1 0 .15 5.38 5.38 0 0 0 -.86.86.09.09 0 0 0 .07.14 10.82 10.82 0 0 1 4.65 1.21c.08 0 0 .22-.07.2a19 19 0 0 0 -15 3 .09.09 0 0 1 -.11-.2z"/></svg>