<svg width="52" height="36" viewBox="0 0 52 36" fill="none" xmlns="http://www.w3.org/2000/svg">
<path d="M41.9002 17.17C41.4248 17.1718 40.9502 17.2086 40.4802 17.2801C40.907 13.7802 40.0789 10.2423 38.143 7.29544C36.2072 4.34859 33.2892 2.18363 29.9076 1.18558C26.5259 0.187528 22.9 0.421041 19.6743 1.84451C16.4486 3.26798 13.8322 5.78922 12.2902 8.95999C11.9975 9.57684 11.7437 10.2116 11.5302 10.8601C8.45727 11.2353 5.64243 12.7663 3.65792 15.1424C1.67342 17.5184 0.668119 20.561 0.846401 23.6516C1.02468 26.7423 2.37321 29.6492 4.61776 31.7813C6.86232 33.9134 9.83454 35.1106 12.9303 35.1299H41.9303C44.3172 35.1551 46.6163 34.2311 48.322 32.5611C50.0276 30.8911 51 28.6121 51.0252 26.2251C51.0504 23.8382 50.1264 21.5389 48.4564 19.8333C46.7864 18.1276 44.5072 17.1551 42.1202 17.1299H41.9303L41.9002 17.17ZM42.1602 32.0201H12.9602C10.5467 32.0399 8.22427 31.1003 6.50363 29.4077C4.78298 27.7152 3.80514 25.4086 3.78524 22.9951C3.76535 20.5817 4.70503 18.259 6.39755 16.5384C8.09006 14.8177 10.3968 13.84 12.8103 13.8201C13.2047 13.8185 13.5987 13.8417 13.9902 13.8899C14.6727 13.9634 15.3441 14.1181 15.9902 14.3501C16.7508 14.6121 17.4711 14.9788 18.1302 15.44L22.4902 18.1499L23.3502 16.5801L24.0902 15.25L18.6002 12.1299C17.4021 11.5027 16.1076 11.0802 14.7702 10.8799C14.8433 10.6823 14.9268 10.4889 15.0202 10.3001C15.7437 8.77256 16.7859 7.41765 18.0766 6.32645C19.3674 5.23524 20.8768 4.43294 22.5034 3.97366C24.13 3.51438 25.836 3.40862 27.5068 3.6636C29.1776 3.91859 30.7746 4.5284 32.1902 5.45193C33.6057 6.37547 34.8071 7.59133 35.7136 9.01785C36.6201 10.4444 37.2107 12.0487 37.4456 13.7224C37.6806 15.3962 37.5545 17.1007 37.0758 18.7217C36.597 20.3427 35.7768 21.8426 34.6703 23.1201L36.5402 24.8301L36.9502 25.2C38.0124 23.9793 38.8702 22.5949 39.4902 21.1001C40.269 20.6926 41.1305 20.4676 42.0091 20.4424C42.8878 20.4173 43.7605 20.5925 44.5614 20.9549C45.3622 21.3172 46.0701 21.8572 46.6313 22.5337C47.1925 23.2103 47.5922 24.0056 47.8003 24.8596C48.0083 25.7137 48.0191 26.6041 47.832 27.4629C47.6448 28.3218 47.2646 29.1266 46.7201 29.8167C46.1756 30.5067 45.4811 31.0638 44.6893 31.4456C43.8975 31.8273 43.0292 32.0238 42.1502 32.0201" fill="white"/>
</svg>
