<svg width="56" height="73" viewBox="0 0 56 73" fill="none" xmlns="http://www.w3.org/2000/svg">
<path fill-rule="evenodd" clip-rule="evenodd" d="M20.1692 32.8602L51.8692 1.15997C52.2829 0.78448 52.8117 0.560115 53.3693 0.523738C53.9269 0.487605 54.4804 0.641169 54.9392 0.960017C55.039 1.03985 55.1296 1.13043 55.2093 1.23004C55.5687 1.66485 55.742 2.22393 55.6914 2.7857C55.6409 3.34771 55.3706 3.86651 54.9392 4.23004L22.0092 36.96L22.4192 37.3702L22.6992 37.65C22.878 37.8653 23.0124 38.1138 23.095 38.3812C23.1776 38.6485 23.2068 38.9295 23.1807 39.2081C23.1547 39.4869 23.0741 39.7576 22.9434 40.0049C22.8128 40.2525 22.6347 40.4715 22.4192 40.65L21.8092 41.2601C21.7205 41.3238 21.6428 41.4014 21.5792 41.49C21.5396 41.543 21.5047 41.5989 21.4748 41.6575C21.4364 41.7327 21.4063 41.8123 21.3852 41.8946C21.3477 42.0411 21.3394 42.1932 21.3608 42.3426C21.3822 42.4922 21.4328 42.636 21.5097 42.7659C21.5866 42.8961 21.6884 43.0096 21.8092 43.1002L22.0092 43.3001C21.5263 43.0941 20.9914 43.0418 20.4777 43.1509C19.964 43.2603 19.4966 43.5252 19.1392 43.91L17.5092 45.5501C14.6167 48.348 12.0136 51.4302 9.73922 54.7501C9.16073 55.6507 8.67806 56.6092 8.29922 57.6102C8.13375 58.0789 7.83022 58.4864 7.42855 58.7791C7.02694 59.0721 6.54604 59.2361 6.04922 59.2501H5.64926C5.05483 59.1358 4.52859 58.7935 4.18295 58.2964C3.8373 57.7996 3.69961 57.1873 3.79922 56.5901L3.80087 56.5836C4.01455 55.7493 5.06277 51.6568 14.2392 42.48L19.3492 37.3602L20.1692 36.5401C21.3892 35.7203 21.3892 34.0904 20.1692 32.8602ZM5.22964 45.9503C5.58804 45.0081 6.06881 44.1172 6.65963 43.3004C8.92709 40.0943 11.5357 37.1436 14.4397 34.5003L16.0697 32.8604C16.427 32.4756 16.8944 32.2105 17.4081 32.1011C17.9218 31.992 18.4567 32.0442 18.9397 32.2503L18.7396 32.0503C18.6189 31.9598 18.5171 31.8462 18.4401 31.7161C18.4132 31.6707 18.3896 31.6238 18.3693 31.5755C18.3555 31.5425 18.3432 31.5091 18.3325 31.4749L18.3252 31.4503L18.3151 31.4136C18.309 31.3897 18.3036 31.3653 18.299 31.3406C18.2961 31.3248 18.2935 31.3089 18.2912 31.293C18.2699 31.1436 18.2782 30.9913 18.3156 30.8448C18.3531 30.6985 18.4191 30.5611 18.5097 30.4402C18.5733 30.3516 18.651 30.274 18.7396 30.2103L19.3496 29.6004C19.5651 29.4219 19.7432 29.2027 19.8739 28.9551C19.911 28.8848 19.9441 28.8126 19.973 28.7388C19.9909 28.6934 20.0072 28.6473 20.0219 28.6006C20.0343 28.5613 20.0456 28.5215 20.0557 28.4813C20.0612 28.4598 20.0663 28.438 20.0711 28.4163C20.0896 28.3314 20.1031 28.2452 20.1112 28.1583C20.1372 27.8797 20.1081 27.5987 20.0254 27.3314C20.005 27.2652 19.9813 27.2 19.9546 27.1363C19.8735 26.9432 19.7641 26.7625 19.6297 26.6004C19.5724 26.5367 19.5128 26.4749 19.4511 26.4151C19.4179 26.3829 19.3841 26.3514 19.3496 26.3204C18.9861 25.8892 18.467 25.6187 17.9052 25.5682C17.3434 25.5176 16.7844 25.691 16.3496 26.0503C16.2499 26.1302 16.1594 26.2208 16.0797 26.3204L11.1696 31.4402C8.15322 34.5828 5.35037 37.9236 2.77969 41.4402C1.97994 42.5682 1.35928 43.8128 0.93966 45.1302C0.838952 45.6963 0.949243 46.2798 1.2496 46.7698C1.55001 47.2601 2.01968 47.6231 2.56967 47.7903H3.18966C3.68423 47.7569 4.15231 47.555 4.51614 47.2183C4.88003 46.8819 5.11776 46.4307 5.18966 45.9402L5.22964 45.9503ZM36.5001 58.23L26.5001 68.5001C26.0688 68.8636 25.7985 69.3826 25.7479 69.9444C25.6974 70.5062 25.8706 71.0652 26.2301 71.5001C26.3149 71.5982 26.4051 71.6917 26.5001 71.7801C26.8897 72.1522 27.4018 72.3689 27.9401 72.3899C28.3501 72.3899 29.1601 72.19 29.3701 71.7801L39.6001 61.5001C40.0314 61.1365 40.3017 60.6175 40.3523 60.0557C40.4029 59.494 40.2296 58.9349 39.8701 58.5001C39.8227 58.4407 39.7716 58.3848 39.7169 58.3323C39.6795 58.2964 39.6405 58.2623 39.6001 58.23C39.1869 57.8345 38.637 57.6138 38.0651 57.6138C37.4932 57.6138 36.9433 57.8345 36.5301 58.23H36.5001ZM46.7495 20.18L23.2295 43.91C24.4594 45.1399 24.4594 46.7701 23.2295 47.5901L22.4094 48.41L17.4995 53.3201C13.9763 56.6744 11.0688 60.6209 8.90945 64.98C8.16586 66.514 7.75033 68.1861 7.68948 69.8899C7.68948 70.4866 7.92654 71.0589 8.34847 71.481C8.77041 71.9029 9.34274 72.1399 9.93948 72.1399C10.5362 72.1399 11.1085 71.9029 11.5305 71.481C11.9524 71.0589 12.1895 70.4866 12.1895 69.8899C12.2852 68.7378 12.6262 67.6197 13.1895 66.6102C15.2072 62.7415 17.8303 59.2203 20.9595 56.18L22.5995 54.5401C22.9552 54.1561 23.4209 53.8914 23.9329 53.7823C24.4448 53.6729 24.9781 53.7244 25.4595 53.93L25.2595 53.73C25.2068 53.6905 25.1576 53.6465 25.1126 53.5987C25.0545 53.5372 25.0033 53.4693 24.9599 53.3961C24.883 53.2659 24.8324 53.1221 24.8111 52.9727C24.7897 52.8231 24.798 52.671 24.8355 52.5247C24.8542 52.4517 24.8798 52.3812 24.9121 52.3138C24.9447 52.2457 24.984 52.1807 25.0295 52.1202C25.0623 52.0804 25.0969 52.0418 25.1332 52.0049C25.1732 51.9644 25.2154 51.9261 25.2595 51.8899L25.8795 51.2801C26.3108 50.9166 26.5811 50.3973 26.6317 49.8355C26.6822 49.2735 26.5089 48.7147 26.1495 48.2801C26.1134 48.2359 26.0758 48.1929 26.0366 48.1514C25.9866 48.0987 25.9342 48.0482 25.8795 48.0001L25.4595 47.5901L50.2095 23.0501C50.6423 22.6878 50.9145 22.1695 50.9669 21.6077C51.0194 21.0457 50.8477 20.4859 50.4895 20.0501C50.4621 20.0196 50.4343 19.9896 50.406 19.96C50.3733 19.9258 50.3398 19.8924 50.3057 19.8597C50.2743 19.8292 50.2421 19.7994 50.2095 19.7701C49.6437 19.5303 49.0254 19.4422 48.4152 19.5142C47.805 19.586 47.2241 19.8155 46.7295 20.18H46.7495ZM26.0996 54.95L41.6397 39.41V39.3702L41.7896 39.2C41.981 39.0076 42.2086 38.855 42.4591 38.751C42.7097 38.647 42.9784 38.5933 43.2497 38.5933C43.521 38.5933 43.7896 38.647 44.0402 38.751C44.2907 38.855 44.5183 39.0076 44.7097 39.2C44.8094 39.2796 44.8999 39.3702 44.9796 39.47C45.3416 39.9036 45.5166 40.4634 45.4659 41.0259C45.4152 41.5884 45.1433 42.108 44.7097 42.47L26.7097 60.47L26.6497 60.5501C26.3226 60.9651 25.8444 61.2339 25.3198 61.2977C24.7951 61.3614 24.2666 61.2147 23.8496 60.8899L26.0996 58.6399C27.3196 57.8199 27.3196 56.18 26.0996 54.95Z" fill="#1D202D"/>
</svg>
