<svg width="50" height="34" viewBox="0 0 50 34" fill="none" xmlns="http://www.w3.org/2000/svg">
<path fill-rule="evenodd" clip-rule="evenodd" d="M49.4202 31.7801V2.0301L49.3901 2.06013C49.4001 1.61091 49.2463 1.17341 48.9574 0.829169C48.6685 0.485175 48.2642 0.25788 47.8201 0.190009C47.4535 0.148505 47.0831 0.221991 46.7601 0.399969L46.4901 0.590155L3.30017 30.73L0.410154 32.73V32.7801C0.488767 32.8985 0.580686 33.0069 0.683957 33.1033C0.796506 33.2083 0.922361 33.2989 1.05884 33.3726C1.32043 33.514 1.61279 33.5889 1.91015 33.5902H47.6101C48.0901 33.5902 48.5505 33.3995 48.89 33.0599C49.2295 32.7205 49.4202 32.2603 49.4202 31.7801ZM21.4694 14.1453C21.4694 14.1068 21.4554 14.0694 21.4302 14.0403L3.04016 0.690253L2.90014 0.590399C2.65124 0.435614 2.36914 0.342352 2.07702 0.317938C1.90198 0.303534 1.72632 0.314032 1.55517 0.348456C1.44092 0.371649 1.32873 0.405585 1.22009 0.450262C0.893186 0.583319 0.614255 0.812079 0.419675 1.10651C0.225095 1.40095 0.124265 1.74763 0.130124 2.10041V31.7903L2.26013 30.0303L21.4302 14.2503C21.4432 14.2354 21.4532 14.2181 21.4598 14.1998C21.4661 14.1824 21.4694 14.1641 21.4694 14.1453Z" fill="white"/>
</svg>
