<svg width="217" height="34" viewBox="0 0 217 34" fill="none" xmlns="http://www.w3.org/2000/svg">
<path d="M206.54 13.5L203.27 20.7L200 13.5H193.4L200.35 25.96V33.21H206.17V25.97L213.17 13.51L206.54 13.5Z" fill="black"/>
<path d="M152.31 0.170109H141.5C141.5 0.170109 136.5 0.0501087 134.2 3.01011C132.31 5.48011 116.74 23.3401 116.74 23.3401V33.1701C116.74 33.1701 137.54 9.27011 142.47 3.51011C145.34 0.210109 152.31 0.170109 152.31 0.170109Z" fill="url(#paint0_linear_1_290)"/>
<path d="M9.99982 33.4997C4.20982 33.4997 0.0498047 29.6198 0.0498047 23.3698C0.0498047 17.1198 4.14982 13.2397 9.99982 13.2397C15.8498 13.2397 19.8198 17.0498 19.8198 23.0498C19.8181 23.6414 19.7814 24.2324 19.7098 24.8197H5.99982C6.20982 27.3897 7.79981 28.5897 9.73981 28.5897C10.3951 28.6349 11.0484 28.4766 11.6104 28.1365C12.1724 27.7965 12.6157 27.2912 12.8798 26.6898H19.3098C18.3498 30.4998 14.8598 33.4997 9.99982 33.4997ZM5.99982 21.4997H13.5498C13.5472 20.5971 13.1867 19.7323 12.5475 19.095C11.9083 18.4576 11.0425 18.0997 10.1398 18.0997H9.83981C8.887 18.0704 7.95892 18.4059 7.24521 19.0378C6.5315 19.6698 6.08602 20.5504 5.99982 21.4997Z" fill="black"/>
<path d="M50.09 22.4997C50.09 19.9197 48.61 18.4997 46.31 18.4997C44.01 18.4997 42.53 19.9097 42.53 22.4997V33.1997H36.53V22.4997C36.53 19.9197 35.05 18.4997 32.75 18.4997C30.45 18.4997 29 19.9397 29 22.4997V33.1997H23V13.4997H29V15.9697C29.6753 15.0969 30.5495 14.3982 31.5498 13.932C32.5501 13.4658 33.6473 13.2456 34.75 13.2897C36.0975 13.2268 37.4364 13.5359 38.6199 14.1832C39.8035 14.8306 40.786 15.7912 41.46 16.9597C42.169 15.8414 43.1477 14.9192 44.3062 14.2779C45.4648 13.6366 46.7659 13.2968 48.09 13.2897C52.97 13.2897 56.09 16.3897 56.09 21.6897V33.2197H50.09V22.4997Z" fill="black"/>
<path d="M67.8101 13.24C69.0018 13.1778 70.189 13.4284 71.2538 13.9669C72.3186 14.5055 73.2241 15.3132 73.8801 16.31V13.5H79.8801V33.2H73.8801V30.43C73.2092 31.4215 72.2952 32.2243 71.2255 32.7618C70.1558 33.2993 68.9661 33.5534 67.7701 33.5C62.9701 33.5 59.1201 29.5 59.1201 23.33C59.1201 17.16 62.9701 13.23 67.8101 13.23V13.24ZM69.5701 18.5C67.3101 18.5 65.2601 20.2 65.2601 23.34C65.2601 26.48 67.3101 28.25 69.5701 28.25C71.8301 28.25 73.8801 26.52 73.8801 23.38C73.8801 20.24 71.8801 18.51 69.5701 18.51" fill="black"/>
<path d="M90.33 13.52H84.29V33.22H90.33V13.52Z" fill="black"/>
<path d="M116.74 6.9502H110.01V33.2202H116.74V6.9502Z" fill="#00AE00"/>
<path d="M100.74 7.1001H94.7002V33.2201H100.74V7.1001Z" fill="black"/>
<path d="M84.29 8.5C84.29 7.90666 84.466 7.32664 84.7956 6.83329C85.1253 6.33994 85.5938 5.95543 86.142 5.72836C86.6901 5.5013 87.2934 5.44189 87.8753 5.55765C88.4572 5.6734 88.9918 5.95912 89.4113 6.37868C89.8309 6.79824 90.1166 7.33278 90.2324 7.91473C90.3481 8.49667 90.2887 9.09987 90.0617 9.64805C89.8346 10.1962 89.4501 10.6648 88.9567 10.9944C88.4634 11.3241 87.8834 11.5 87.29 11.5C86.4944 11.5 85.7313 11.1839 85.1687 10.6213C84.6061 10.0587 84.29 9.29565 84.29 8.5Z" fill="black"/>
<path d="M171.22 8.5C171.22 7.90666 171.396 7.32664 171.725 6.83329C172.055 6.33994 172.524 5.95543 173.072 5.72836C173.62 5.5013 174.223 5.44189 174.805 5.55765C175.387 5.6734 175.922 5.95912 176.341 6.37868C176.761 6.79824 177.046 7.33278 177.162 7.91473C177.278 8.49667 177.218 9.09987 176.991 9.64805C176.764 10.1962 176.38 10.6648 175.886 10.9944C175.393 11.3241 174.813 11.5 174.22 11.5C173.424 11.5 172.661 11.1839 172.098 10.6213C171.536 10.0587 171.22 9.29565 171.22 8.5Z" fill="black"/>
<path d="M143.1 33.5C137.31 33.5 133.1 29.61 133.1 23.36C133.1 17.11 137.2 13.23 143.1 13.23C149 13.23 152.92 17.04 152.92 23.05C152.918 23.6383 152.881 24.226 152.81 24.81H139.15C139.36 27.39 140.95 28.59 142.89 28.59C143.54 28.6237 144.186 28.4592 144.741 28.1181C145.297 27.7771 145.735 27.2756 146 26.68H152.42C151.51 30.5 148 33.5 143.11 33.5H143.1ZM139.18 21.5H146.74C146.74 20.5956 146.38 19.7282 145.741 19.0887C145.101 18.4492 144.234 18.09 143.33 18.09H143C142.045 18.058 141.115 18.3924 140.399 19.0245C139.683 19.6567 139.236 20.5388 139.15 21.49" fill="black"/>
<path d="M162.14 33.2203H156.14V13.5003H162.14V16.7803C162.791 15.7229 163.699 14.8475 164.78 14.2355C165.86 13.6235 167.078 13.2949 168.32 13.2803V19.6803H166.66C163.8 19.6803 162.14 20.6803 162.14 24.0503V33.2203Z" fill="black"/>
<path d="M177.26 13.5103H171.22V33.2203H177.26V13.5103Z" fill="black"/>
<path d="M182.24 18.5002H180.05V13.5002H182.24V12.9302C182.24 7.78024 185.42 5.23024 191.42 5.55024V10.6702C189.09 10.5302 188.28 11.2402 188.28 13.3202V13.5002H191.53V18.5002H188.28V33.2002H182.28L182.24 18.5002Z" fill="black"/>
<path d="M210.05 30.1802C210.05 29.589 210.225 29.0111 210.552 28.5188C210.88 28.0266 211.345 27.6422 211.891 27.4137C212.436 27.1853 213.036 27.123 213.617 27.2348C214.197 27.3465 214.732 27.6273 215.154 28.0419C215.575 28.4565 215.865 28.9863 215.986 29.5649C216.107 30.1435 216.055 30.7451 215.836 31.2941C215.616 31.843 215.239 32.315 214.753 32.6505C214.266 32.9861 213.691 33.1704 213.1 33.1802C212.316 33.1939 211.558 32.9002 210.988 32.3619C210.418 31.8237 210.081 31.0836 210.05 30.3002V30.1402" fill="black"/>
<path d="M214.32 29.5H214.41C214.463 29.4895 214.517 29.4895 214.57 29.5C214.676 29.5307 214.768 29.5954 214.833 29.684C214.898 29.7725 214.932 29.8801 214.93 29.99V30.99C214.952 31.0674 214.956 31.1488 214.941 31.228C214.927 31.3071 214.894 31.3817 214.845 31.446C214.797 31.5102 214.734 31.5623 214.662 31.5982C214.59 31.6341 214.511 31.6528 214.43 31.6528C214.35 31.6528 214.27 31.6341 214.198 31.5982C214.126 31.5623 214.064 31.5102 214.015 31.446C213.967 31.3817 213.934 31.3071 213.919 31.228C213.904 31.1488 213.908 31.0674 213.93 30.99V29.99C213.93 29.8695 213.972 29.7527 214.049 29.6597C214.125 29.5667 214.232 29.5032 214.35 29.48" fill="#999999"/>
<path d="M213 29.1202C213.199 28.9636 213.448 28.8835 213.701 28.8946C213.954 28.9056 214.195 29.0069 214.38 29.1802C214.327 29.1697 214.272 29.1697 214.22 29.1802C214.061 29.2225 213.92 29.3123 213.815 29.4375C213.709 29.5626 213.645 29.7172 213.63 29.8802V30.9602C213.618 31.0549 213.582 31.1449 213.524 31.2206C213.466 31.2963 213.388 31.3549 213.3 31.3902C213.237 31.4006 213.173 31.4006 213.11 31.3902C212.974 31.3902 212.845 31.3365 212.749 31.2408C212.653 31.1452 212.6 31.0155 212.6 30.8802V29.8802C212.599 29.7192 212.635 29.5603 212.705 29.4149C212.774 29.2696 212.875 29.1416 213 29.0402" fill="white"/>
<path d="M212.29 28.8801C212.435 28.8718 212.579 28.8993 212.71 28.9601C212.572 29.0573 212.459 29.186 212.381 29.3356C212.303 29.4852 212.261 29.6513 212.26 29.8201V30.9301C212.282 31.0075 212.286 31.089 212.271 31.1681C212.257 31.2472 212.224 31.3218 212.175 31.3861C212.127 31.4503 212.064 31.5025 211.992 31.5384C211.92 31.5743 211.841 31.5929 211.76 31.5929C211.68 31.5929 211.6 31.5743 211.528 31.5384C211.456 31.5025 211.394 31.4503 211.345 31.3861C211.297 31.3218 211.264 31.2472 211.249 31.1681C211.234 31.089 211.238 31.0075 211.26 30.9301V29.9301C211.263 29.6498 211.375 29.3817 211.574 29.1835C211.772 28.9852 212.04 28.8727 212.32 28.8701" fill="white"/>
<defs>
<linearGradient id="paint0_linear_1_290" x1="141.021" y1="-11.8864" x2="114.028" y2="23.1149" gradientUnits="userSpaceOnUse">
<stop stop-color="#00AE00"/>
<stop offset="0.61" stop-color="#00AE00"/>
<stop offset="1" stop-color="#003608"/>
</linearGradient>
</defs>
</svg>
