<svg width="20" height="20" viewBox="0 0 20 20" fill="none" xmlns="http://www.w3.org/2000/svg">
<path fill-rule="evenodd" clip-rule="evenodd" d="M0 1.42857C0 0.639593 0.559644 0 1.25 0H18.75C19.4404 0 20 0.639593 20 1.42857C20 2.21755 19.4404 2.85714 18.75 2.85714H1.25C0.559644 2.85714 0 2.21755 0 1.42857ZM0 10C0 9.21102 0.559644 8.57143 1.25 8.57143H18.75C19.4404 8.57143 20 9.21102 20 10C20 10.789 19.4404 11.4286 18.75 11.4286H1.25C0.559644 11.4286 0 10.789 0 10ZM0 18.5714C0 17.7825 0.559644 17.1429 1.25 17.1429H18.75C19.4404 17.1429 20 17.7825 20 18.5714C20 19.3604 19.4404 20 18.75 20H1.25C0.559644 20 0 19.3604 0 18.5714Z" fill="#00AE00"/>
</svg>
