<svg width="108" height="259" viewBox="0 0 108 259" fill="none" xmlns="http://www.w3.org/2000/svg">
<path d="M105.044 234.565C106.632 236.424 108.135 238.105 105.453 247.759C104.856 250.076 103.964 252.305 102.798 254.394C103.81 251.476 103.726 249.525 101.526 245.632L98.6855 240.744C98.5927 240.577 96.4483 237.91 98.6855 231.23C98.6855 231.174 98.9826 230.403 99.0011 230.301C100.18 225.729 101.619 221.855 98.4813 219.662C95.9378 217.803 95.0559 216.633 96.7454 212.981C97.1353 212.126 97.5901 211.234 98.0264 210.389C99.6695 207.193 101.025 205.492 100.384 202.333C99.9016 199.964 92.4708 121.634 83.3643 62.3815L107.193 60.7484C107.234 60.7474 107.276 60.7551 107.314 60.7711C107.352 60.7871 107.387 60.811 107.416 60.8413C107.471 60.9018 107.499 61.0643 107.499 61.0643L106.056 200.856C106.056 200.921 106.4 207.555 103.856 211.671L103.8 211.792C102.566 215.434 103.197 216.884 103.93 218.556C104.135 219.039 104.348 219.541 104.543 220.126C104.579 221.666 104.2 223.187 103.448 224.531C103.2 224.977 103.015 225.455 102.9 225.952C102.714 227.067 102.259 230.905 104.246 233.59C104.506 233.943 104.784 234.24 105.044 234.565Z" fill="#D6D6D6"/>
<path d="M97.1915 249.915C97.1915 249.915 96.2818 250.658 95.4185 251.169C95.1908 251.298 94.9551 251.413 94.713 251.513C94.1096 250.519 93.237 249.236 92.0859 247.545L91.4361 246.514C87.8344 241.199 84.2194 230.17 84.1822 230.059V229.984C84.1822 229.873 78.9063 218.972 76.6506 214.995C74.3948 211.019 70.9952 204.637 70.9859 204.618C70.9766 204.6 67.5349 199.247 65.6954 195.139C61.1189 184.918 47.7694 146.017 47.6395 145.636L24.0702 75.3543L21.8145 68.5808L22.4735 68.5158L37.3262 67.6331L57.4979 142.049L58.7696 146.964L59.9764 151.889L61.0439 155.763C61.1646 156.182 69.6213 195.522 81.4663 211.039C82.144 211.968 83.4494 212.939 83.4975 214.311L83.4621 216.67C83.4621 217.292 83.5642 221.789 86.7575 227.624C87.2495 228.553 87.7706 230.403 88.2904 232.113C89.0588 234.823 89.8086 237.106 91.0292 239.644C92.3891 242.368 92.3986 242.383 93.0833 243.753C93.4175 244.227 95.4137 247.471 95.8221 247.861C96.6374 248.64 97.5721 248.568 97.1915 249.915Z" fill="#666766"/>
<path d="M93.0875 251.968C91.7261 252.277 90.3411 252.47 88.9473 252.545C88.5853 251.272 88.3068 250.25 87.9076 248.707C86.8587 244.665 83.0712 241.618 77.4922 240.345C72.6744 239.62 70.9942 237.771 68.2093 232.205C67.9958 231.778 67.281 229.548 66.8633 228.071C66.5755 227.141 66.3527 226.398 66.2506 226.11C64.6261 221.613 61.6927 217.952 57.6361 212.879C56.2901 211.188 54.7584 209.274 53.1246 207.127C46.3574 198.979 33.6862 169.552 33.547 169.236L0.648438 99.6984L20.6716 70.0583L46.1996 146.435C46.3388 146.825 59.5112 185.181 64.1063 195.467C65.443 198.44 69.4811 205.353 69.676 205.687C69.676 205.687 73.1849 211.978 75.4685 216.029C77.6222 219.866 82.505 230.189 82.8299 230.895C83.1548 231.601 86.543 242.315 90.1912 247.676L90.8967 248.707C91.8436 250.036 92.4748 250.965 93.0875 251.968Z" fill="#E0E0E0"/>
<path d="M100.364 255.685L100.299 255.862C97.8666 260.08 92.3154 257.069 91.8234 256.791L91.712 256.67H91.6006C91.3592 256.531 90.9787 256.326 90.4867 256.103H90.301V256.02C89.6987 255.756 89.0782 255.535 88.4444 255.36L87.0984 255.128L86.7271 255.062C86.1799 255.018 85.6293 255.075 85.1026 255.23C83.3574 255.769 81.9557 257.432 81.0645 258.603C81.0803 258.291 81.1113 257.981 81.1574 257.673C81.2132 257.266 81.3065 256.865 81.4358 256.475C82.3084 253.892 84.4249 253.687 85.706 253.52H85.8266C86.0309 253.52 86.4022 253.474 86.8756 253.455C87.5811 253.455 88.528 253.371 89.5584 253.288L90.1246 253.232L90.6816 253.176C92.0793 253.037 93.4599 252.76 94.8032 252.349L95.323 252.163C95.5087 252.089 95.6758 252.024 95.8429 251.941C96.0655 251.834 96.2824 251.716 96.4927 251.587C96.865 251.391 97.1878 251.112 97.4371 250.773C97.6863 250.433 97.8553 250.041 97.9315 249.627C98.0336 248.698 97.3281 247.899 96.6505 247.165C96.3119 246.805 96.0016 246.42 95.7222 246.012C94.1695 243.555 92.7862 240.993 91.582 238.347C90.4881 235.855 89.5972 233.279 88.9179 230.644C88.5639 229.178 88.0857 227.745 87.4883 226.361C84.5549 220.489 84.5827 218.314 84.6106 216.001V215.443C84.6073 214.889 84.5388 214.337 84.4064 213.799C84.2761 213.296 84.0892 212.81 83.8494 212.349C83.7215 212.105 83.5789 211.87 83.4224 211.643C75.1513 199.815 67.1588 172.619 63.8819 160.623C63.2692 158.375 62.8236 156.656 62.573 155.68C62.4245 155.113 62.3502 154.751 62.3409 154.751L61.3013 150.82L39.1059 66.8435L38.9573 66.2488L38.7902 65.6541L35.1699 51.9491L71.4382 0C72.1251 4.9524 75.5598 27.568 79.8856 58.4346L79.9691 59.0385C79.9691 59.2337 80.0248 59.4474 80.0434 59.6425C88.398 118.932 98.34 199.081 98.7856 201.469C99.2961 204.256 98.3957 207.044 96.929 210.138C96.5298 211.011 96.0007 212.238 95.5922 213.13C93.8285 217.311 95.2673 218.705 98.0336 220.962C100.262 222.672 99.0362 224.883 97.978 229.399C97.1518 232.261 96.4648 234.426 96.5391 236.163C96.565 237.602 96.9753 239.007 97.7273 240.233L100.317 245.139C102.666 249.636 102.174 250.965 100.364 255.685Z" fill="#E0E0E0"/>
</svg>
