<svg width="13" height="13" viewBox="0 0 13 13" fill="none" xmlns="http://www.w3.org/2000/svg">
<path d="M6.937 12.426C7.05191 12.426 7.16569 12.4034 7.27185 12.3594C7.37801 12.3154 7.47447 12.251 7.55572 12.1697C7.63697 12.0885 7.70142 11.992 7.74539 11.8859C7.78937 11.7797 7.812 11.6659 7.812 11.551V7.61303H11.749C11.8639 7.61303 11.9777 7.59039 12.0838 7.54642C12.19 7.50245 12.2865 7.43799 12.3677 7.35674C12.449 7.27549 12.5134 7.17903 12.5574 7.07287C12.6014 6.96671 12.624 6.85293 12.624 6.73803V5.86303C12.624 5.63096 12.5318 5.4084 12.3677 5.24431C12.2036 5.08021 11.9811 4.98803 11.749 4.98803H7.812V1.05103C7.812 0.936119 7.78937 0.822337 7.74539 0.716177C7.70142 0.610018 7.63697 0.513558 7.55572 0.432307C7.47447 0.351056 7.37801 0.286604 7.27185 0.242631C7.16569 0.198658 7.05191 0.176025 6.937 0.176025H6.062C5.82994 0.176025 5.60738 0.268213 5.44328 0.432307C5.27919 0.596401 5.187 0.818961 5.187 1.05103V4.98803H1.25C1.01794 4.98803 0.795376 5.08021 0.631282 5.24431C0.467187 5.4084 0.375 5.63096 0.375 5.86303L0.375 6.73803C0.375 6.85293 0.397633 6.96671 0.441605 7.07287C0.485578 7.17903 0.55003 7.27549 0.631282 7.35674C0.712533 7.43799 0.808992 7.50245 0.915152 7.54642C1.02131 7.59039 1.13509 7.61303 1.25 7.61303H5.187V11.55C5.187 11.7821 5.27919 12.0047 5.44328 12.1687C5.60738 12.3328 5.82994 12.425 6.062 12.425L6.937 12.426Z" fill="#666666"/>
</svg>
