<svg width="42" height="35" viewBox="0 0 42 35" fill="none" xmlns="http://www.w3.org/2000/svg">
<path d="M21.22 7.75038L23.3101 10.1304L22.5101 10.8303L20.5101 8.56044L18.5101 10.8303L17.71 10.1304L19.8001 7.75038L17.71 5.38038L18.5101 4.67042L20.5101 6.94032L22.5101 4.67042L23.3101 5.38038L21.22 7.75038Z" fill="white"/>
<path fill-rule="evenodd" clip-rule="evenodd" d="M27.2013 4.10011C27.0679 3.83827 26.9189 3.58363 26.7544 3.33766C25.9293 2.10268 24.7563 1.14015 23.384 0.571669C22.0117 0.00330985 20.5018 -0.145494 19.045 0.144301C17.5882 0.434096 16.2499 1.14931 15.1996 2.1996C14.6448 2.75441 14.1835 3.38954 13.829 4.08009H7.68011C6.92205 4.13405 6.21587 4.48439 5.71429 5.05519C5.2127 5.62599 4.95599 6.37147 5.00005 7.13014V7.74025H3.51006C3.04705 7.74159 2.58868 7.83424 2.16143 8.01295C1.73431 8.19166 1.34661 8.45302 1.02044 8.78187C0.69439 9.11073 0.436455 9.50062 0.261284 9.92934C0.0862356 10.358 -0.00250949 10.8172 5.39908e-05 11.2803V31.2803C0.0106741 32.2122 0.390313 33.1017 1.05572 33.754C1.72125 34.4064 2.61834 34.7683 3.5501 34.7603H20.5501L37.57 34.7402C38.034 34.7416 38.4937 34.6511 38.9225 34.4743C39.3515 34.2974 39.741 34.0372 40.069 33.7092C40.2286 33.5498 40.372 33.3757 40.4976 33.1897C40.6303 32.9931 40.7431 32.783 40.834 32.5626C41.011 32.1338 41.1014 31.6742 41.1 31.2102V11.2903C41.0993 11.0481 41.0726 10.8067 41.0201 10.5702C40.8606 9.76405 40.4225 9.03981 39.7825 8.52418C39.1426 8.00856 38.3417 7.73463 37.5201 7.75026H36.4301V7.15016C36.4304 6.94203 36.4102 6.73439 36.37 6.53017C36.2856 5.88649 35.98 5.29213 35.5058 4.84889C35.0314 4.40565 34.4179 4.14101 33.7701 4.10011H27.2013ZM20.5101 15.02C19.0247 15.02 17.5727 14.5796 16.3377 13.7544C15.1027 12.9292 14.1402 11.7562 13.5717 10.3839C13.0034 9.01161 12.8545 7.50172 13.1443 6.04494C13.1863 5.834 13.2371 5.62562 13.2967 5.42018H7.81011C7.61858 5.42872 7.42791 5.45204 7.24004 5.49013V5.55018L9.57879 7.74025H12.83C12.8328 8.26417 12.8864 8.78676 12.99 9.30031H3.62005C3.45037 9.28554 3.27972 9.28554 3.11004 9.30031H2.88006V9.38026L20.5401 24.0303L38.2 9.38026V9.30031H37.98C37.909 9.29616 37.8378 9.29372 37.7667 9.29311C37.6678 9.29213 37.5689 9.29457 37.47 9.30031H27.8036C27.4792 10.622 26.7986 11.8423 25.8204 12.8204C24.412 14.2289 22.5019 15.02 20.5101 15.02ZM28.0163 7.75026H31.8707L34.22 5.55018V5.50014L33.6501 5.44008H27.7292C27.9211 6.10951 28.0201 6.80604 28.0201 7.51002C28.0201 7.59022 28.0189 7.6703 28.0163 7.75026ZM20.5101 1.56007C19.3234 1.56007 18.1634 1.91188 17.1767 2.57118C16.19 3.23048 15.4208 4.16762 14.9667 5.26393C14.5126 6.36024 14.3939 7.56679 14.6253 8.73061C14.8569 9.89455 15.4283 10.9635 16.2674 11.8026C17.1065 12.6417 18.1757 13.2133 19.3395 13.4447C20.5035 13.6763 21.7099 13.5574 22.8062 13.1033C23.9025 12.6492 24.8395 11.8801 25.4988 10.8934C26.1581 9.90675 26.5101 8.74672 26.5101 7.56007C26.5168 6.77028 26.3661 5.98707 26.0669 5.25612C25.7678 4.52516 25.326 3.86098 24.7675 3.3025C24.209 2.74403 23.545 2.30238 22.814 2.00319C22.0831 1.70399 21.2999 1.55348 20.5101 1.56007ZM35.22 7.13014V7.75026H33.7774L35.1501 6.47011C35.179 6.5569 35.196 6.64711 35.2059 6.73866C35.22 6.86854 35.22 7.00111 35.22 7.13014ZM6.38006 6.49013L7.71697 7.74025H6.32V7.23012C6.31744 7.18568 6.31548 7.14125 6.31414 7.09682C6.31341 7.07057 6.31292 7.0442 6.31268 7.01784C6.3117 6.91859 6.31414 6.81923 6.32 6.72011V6.49013H6.38006ZM2.8001 33.0802H3.0501C3.23809 33.1183 3.42852 33.1417 3.62005 33.1503H37.4001C37.6016 33.1502 37.8025 33.13 38.0001 33.0902L38.33 33.0403L26.47 21.1902L26.34 21.2903L21.1401 25.6002C20.9891 25.7446 20.789 25.8268 20.58 25.8302C20.3715 25.8248 20.1723 25.7431 20.0201 25.6002L16.87 22.9802L16.72 22.8602L14.72 21.1803L2.8001 33.0802ZM1.66009 10.5603H1.73211L13.3001 20.1603L1.61004 31.8402C1.61614 31.7504 1.61614 31.66 1.61004 31.5702C1.60076 31.4628 1.59722 31.355 1.59942 31.2473C1.60076 31.1815 1.6043 31.1159 1.61004 31.0503V11.4303C1.61077 11.3292 1.61553 11.2282 1.62432 11.1275C1.63262 11.0313 1.64459 10.9354 1.66009 10.8402V10.5603ZM39.3901 10.5003L27.7601 20.1603L39.4301 31.8202C39.4301 31.6203 39.4301 31.4202 39.49 31.2302V11.2302C39.4805 11.0658 39.4606 10.9021 39.4301 10.7402V10.4502L39.3901 10.5003Z" fill="white"/>
</svg>
