<svg width="41" height="36" viewBox="0 0 41 36" fill="none" xmlns="http://www.w3.org/2000/svg">
<path d="M20.3397 11.5704L22.0597 4.35044V4.34043C22.0588 4.32615 22.056 4.31211 22.0514 4.29868C22.0477 4.28794 22.0429 4.27756 22.0371 4.2678C22.0345 4.26352 22.0317 4.25937 22.0287 4.25535C22.023 4.24765 22.0165 4.24033 22.0095 4.23374C21.9797 4.20591 21.9405 4.19028 21.8997 4.1904H21.2997C21.2651 4.1915 21.2318 4.20383 21.2047 4.22544C21.1777 4.24704 21.1584 4.27695 21.1497 4.31052L19.4297 11.5305C19.4323 11.5711 19.4503 11.6093 19.48 11.6372C19.4954 11.6516 19.5133 11.6627 19.5327 11.6701C19.5508 11.677 19.5701 11.6805 19.5897 11.6805H20.1897C20.2235 11.6817 20.2566 11.6715 20.2838 11.6515C20.311 11.6314 20.3308 11.603 20.3397 11.5704Z" fill="white"/>
<path d="M22.13 6.58005L22.1199 6.61008C22.1163 6.61326 22.113 6.61692 22.1103 6.62095L22.1072 6.62607L22.1049 6.63047C22.1014 6.63828 22.0996 6.64658 22.0996 6.65513C22.0996 6.66367 22.1014 6.67197 22.1049 6.67978C22.1084 6.6876 22.1135 6.69443 22.1199 6.70005L23.4299 8.04014C23.4324 8.04307 23.4346 8.04612 23.4366 8.04941L23.4401 8.05613C23.4421 8.06052 23.4436 8.06504 23.4447 8.0698C23.4458 8.0748 23.4464 8.07993 23.4464 8.08506C23.4464 8.10154 23.4405 8.11753 23.4299 8.1301L22.1099 9.48008C22.1099 9.49595 22.1163 9.51133 22.1275 9.52256C22.1387 9.53379 22.154 9.54014 22.1699 9.54014H23.1699L24.57 8.10007C24.5734 8.09617 24.5764 8.09189 24.5787 8.08738C24.5829 8.07895 24.5852 8.06968 24.5852 8.06015C24.5852 8.04538 24.5798 8.0311 24.57 8.02012L23.1799 6.58005H22.13Z" fill="white"/>
<path d="M19.3402 6.69028L18.0202 8.04038C18.0104 8.05137 18.0049 8.06553 18.0049 8.0803C18.0049 8.09507 18.0104 8.10935 18.0202 8.12034L19.3402 9.47031C19.3467 9.478 19.3514 9.48703 19.3541 9.49656C19.3557 9.50266 19.3566 9.50901 19.3566 9.51536C19.3566 9.53183 19.3508 9.54783 19.3402 9.5604H18.2902L16.9002 8.13035C16.8897 8.11777 16.8838 8.10178 16.8838 8.0853C16.8838 8.07578 16.8857 8.0665 16.8894 8.05784C16.8921 8.05161 16.8958 8.04563 16.9002 8.04038L18.2902 6.61033H19.2902C19.2902 6.61033 19.3088 6.61045 19.3234 6.62644C19.3326 6.63657 19.3402 6.65317 19.3402 6.68039V6.69028Z" fill="white"/>
<path fill-rule="evenodd" clip-rule="evenodd" d="M20.7101 15.3302C19.2421 15.3302 17.8071 14.8949 16.5867 14.0791C15.3662 13.2633 14.4152 12.1039 13.854 10.7474C13.7499 10.4959 13.6601 10.2398 13.5847 9.9802H3.86994C3.70362 9.96494 3.53626 9.96494 3.36994 9.9802H3.12995V10.0503L20.4999 24.5503L37.8699 10.1302V10.0503H37.63C37.4668 10.0403 37.3032 10.0403 37.14 10.0503H27.8499C27.9947 9.55149 28.0852 9.03843 28.1199 8.52024H37.1899C37.998 8.50632 38.7853 8.77573 39.4155 9.28171C40.0457 9.78769 40.479 10.4984 40.64 11.2903C40.688 11.5239 40.7114 11.7618 40.71 12.0002V31.5002C40.7113 31.9559 40.6228 32.4074 40.4497 32.829C40.2765 33.2505 40.022 33.6336 39.7007 33.9568C39.3794 34.2799 38.9976 34.5367 38.5771 34.7123C38.1566 34.8879 37.7056 34.9789 37.2499 34.9802L20.4999 35.0102H3.78993C3.33601 35.0155 2.88557 34.9312 2.4643 34.7621C2.04304 34.593 1.65937 34.3423 1.33515 34.0245C1.01093 33.7068 0.752633 33.3282 0.574959 32.9105C0.397347 32.4928 0.303841 32.0442 0.299935 31.5902V11.9303C0.295968 11.4739 0.382577 11.0212 0.554818 10.5985C0.727059 10.1758 0.981454 9.79148 1.30329 9.46775C1.62513 9.14414 2.00794 8.88743 2.42963 8.71274C2.85133 8.53806 3.30354 8.44883 3.75996 8.45017H13.3099C13.2616 7.78745 13.302 7.11765 13.4334 6.45896C13.7205 5.01938 14.4282 3.69736 15.4669 2.66001C16.5056 1.62265 17.8286 0.916722 19.2686 0.631566C20.7086 0.34641 22.2009 0.494847 23.5565 1.05796C24.9122 1.62107 26.0703 2.57358 26.8844 3.79514C27.6985 5.0167 28.132 6.45224 28.1301 7.92026C28.1274 9.88645 27.3445 11.7711 25.9533 13.1605C24.562 14.5499 22.6763 15.3302 20.7101 15.3302ZM20.7101 2.03025C19.5452 2.03025 18.4063 2.37558 17.4378 3.0228C16.4691 3.67002 15.7142 4.58994 15.2684 5.66623C14.8226 6.74253 14.7059 7.92673 14.9332 9.06931C15.1605 10.2119 15.7215 11.2613 16.5452 12.0851C17.369 12.9088 18.4184 13.4697 19.561 13.697C20.7035 13.9243 21.8878 13.8077 22.9641 13.3619C24.0403 12.9161 24.9602 12.1611 25.6074 11.1925C26.2546 10.2239 26.6 9.08518 26.6 7.92026C26.6 7.1467 26.4477 6.38083 26.1517 5.66623C25.8557 4.95163 25.4219 4.30222 24.8749 3.75535C24.328 3.20835 23.6787 2.77463 22.9641 2.47861C22.2495 2.18259 21.4836 2.03025 20.7101 2.03025ZM14.6899 21.7402L3.03993 33.3702H3.28993C3.47736 33.41 3.66834 33.4301 3.85993 33.4303H37.0999C37.213 33.4301 37.3259 33.4238 37.4381 33.4112C37.5258 33.4013 37.6132 33.3877 37.7 33.3702H38.02L26.3499 21.7102L26.21 21.8202L21.0999 26.0603C21.0274 26.1338 20.941 26.192 20.8457 26.2318C20.7504 26.2716 20.6482 26.2922 20.5449 26.2922C20.4417 26.2922 20.3395 26.2716 20.2442 26.2318C20.1489 26.192 20.0625 26.1338 19.9899 26.0603L16.7899 23.4103L14.7899 21.7602L14.6899 21.7402ZM1.99995 11.2102H1.91993V11.4702C1.9051 11.6666 1.9051 11.8639 1.91993 12.0603V31.3702C1.90546 31.5366 1.90546 31.7038 1.91993 31.8702V32.1402L13.4199 20.6502L2.01997 11.1902L1.99995 11.2102ZM38.9999 11.2102L27.5599 20.7102L39.0399 32.1803C39.0698 31.9881 39.0899 31.7944 39.0999 31.6002V11.9702C39.0938 11.8736 39.0842 11.7774 39.0711 11.6816C39.0623 11.6177 39.0519 11.5538 39.0399 11.4902V11.2102H38.9999Z" fill="white"/>
</svg>
