<svg width="39" height="34" viewBox="0 0 39 34" fill="none" xmlns="http://www.w3.org/2000/svg">
<path d="M21.2901 7.42029C21.2893 7.43372 21.288 7.44702 21.2858 7.46021C21.2809 7.43079 21.2726 7.4021 21.261 7.37488C21.2406 7.32703 21.2101 7.28369 21.1712 7.24792C21.1001 7.1825 21.0065 7.14746 20.91 7.15027H19.2901V4.76025C19.2864 4.72339 19.2772 4.6875 19.2633 4.65369C19.2444 4.60754 19.2164 4.56531 19.1807 4.52966C19.1187 4.46765 19.0371 4.42908 18.95 4.42029C18.9005 4.41479 18.8506 4.41919 18.803 4.43347C18.7554 4.44763 18.711 4.47144 18.6727 4.50317C18.6345 4.53491 18.603 4.57397 18.5802 4.61816C18.5672 4.64355 18.557 4.67029 18.5502 4.69788C18.5451 4.71826 18.5416 4.73914 18.5401 4.76025V7.50024C18.5404 7.51123 18.5413 7.52222 18.5425 7.53308C18.5441 7.54626 18.5464 7.55933 18.5495 7.57227C18.5556 7.59875 18.5646 7.62451 18.5764 7.64905C18.5988 7.69556 18.6308 7.73682 18.6701 7.77026H18.73C18.7542 7.77576 18.7787 7.77893 18.8034 7.77991C18.8391 7.78137 18.875 7.77808 18.91 7.77026H20.91C21.0065 7.77295 21.1001 7.73779 21.1712 7.67249C21.2323 7.61621 21.2725 7.54138 21.2858 7.46021C21.288 7.47339 21.2893 7.48682 21.2901 7.50024V7.42029Z" fill="white"/>
<path fill-rule="evenodd" clip-rule="evenodd" d="M18.9201 0.5C17.5514 0.5 16.2135 0.905884 15.0755 1.66626C13.9375 2.42664 13.0505 3.50745 12.5267 4.77185C12.0031 6.03625 11.866 7.42761 12.1329 8.77002C12.4 10.1124 13.0591 11.3455 14.0269 12.3132C14.9946 13.281 16.2277 13.9401 17.57 14.207C18.9124 14.474 20.3037 14.337 21.5681 13.8132C22.8327 13.2894 23.9135 12.4025 24.6738 11.2645C25.4342 10.1266 25.84 8.7887 25.84 7.42004C25.84 5.58472 25.111 3.82458 23.8132 2.52686C22.5155 1.22913 20.7554 0.5 18.9201 0.5ZM19.27 12.85V11.6899C19.2688 11.6431 19.2581 11.597 19.2387 11.5544C19.2193 11.5118 19.1915 11.4734 19.157 11.4417C19.1364 11.4226 19.1135 11.4062 19.089 11.3928C19.0726 11.3838 19.0554 11.3761 19.0377 11.3698C18.9937 11.354 18.9469 11.3473 18.9 11.35C18.8716 11.3522 18.8438 11.3577 18.817 11.3662C18.7609 11.384 18.7095 11.415 18.6672 11.4573C18.605 11.5197 18.567 11.6021 18.5601 11.6899V12.89C17.254 12.7999 16.0228 12.2469 15.088 11.3304C14.1532 10.4139 13.5759 9.19409 13.46 7.89001H14.69C14.7578 7.8844 14.8223 7.85974 14.8761 7.81946C14.8966 7.8042 14.9155 7.78674 14.9325 7.76721C14.9942 7.69617 15.0256 7.60388 15.02 7.51001C15.0153 7.42407 14.9789 7.3429 14.918 7.28198C14.8572 7.22107 14.7759 7.18481 14.69 7.18005H13.44C13.4938 5.82336 14.0476 4.5343 14.9946 3.5614C15.9418 2.5885 17.2152 2.00037 18.57 1.91003V3.10999C18.5613 3.16162 18.564 3.2146 18.5778 3.26501C18.5917 3.31543 18.6163 3.3623 18.6502 3.40222C18.684 3.44214 18.726 3.47437 18.7735 3.49634C18.8209 3.51831 18.8728 3.52979 18.9251 3.52979C18.9774 3.52979 19.0291 3.51831 19.0766 3.49634C19.0938 3.4884 19.1102 3.479 19.126 3.46851C19.1535 3.44995 19.1784 3.42761 19.1998 3.40222C19.2337 3.3623 19.2584 3.31543 19.2722 3.26501C19.2861 3.2146 19.2887 3.16162 19.28 3.10999V1.87C20.6331 1.96265 21.9042 2.552 22.8491 3.52466C23.7942 4.49731 24.3466 5.78491 24.4 7.14001H23.23C23.1461 7.15417 23.0698 7.19763 23.0149 7.26257C22.9944 7.28687 22.9773 7.3136 22.964 7.34204C22.9417 7.38965 22.9298 7.44177 22.9298 7.495C22.9298 7.58008 22.96 7.66248 23.0149 7.72742C23.0698 7.79236 23.1461 7.83582 23.23 7.84998H24.38C24.2658 9.15637 23.6878 10.3787 22.7504 11.2958C21.8131 12.2129 20.5786 12.7642 19.27 12.85Z" fill="white"/>
<path fill-rule="evenodd" clip-rule="evenodd" d="M3.25013 8.20984H11.091C11.1668 8.70984 11.2888 9.1947 11.4528 9.65991H3.38014L3.28224 9.66003C3.24086 9.66028 3.19972 9.66077 3.15883 9.66199C2.99708 9.66663 2.83864 9.68164 2.68019 9.72986V9.79993L19.0701 23.3999L35.4401 9.79993V9.72986C35.2118 9.69165 34.9815 9.66833 34.7501 9.65991H26.5473C26.7112 9.1947 26.8333 8.70984 26.9091 8.20984H34.7902C35.5524 8.19922 36.2942 8.45544 36.8876 8.93384C37.481 9.41223 37.8887 10.0828 38.0402 10.8298C38.0628 10.9442 38.0798 11.0596 38.0916 11.1754C38.1024 11.2831 38.1087 11.3914 38.1101 11.4999V29.9799C38.1128 30.848 37.7711 31.6818 37.16 32.2986C36.549 32.9153 35.7183 33.2645 34.8501 33.2699H3.29017C2.42543 33.2726 1.59462 32.9336 0.978406 32.3269C0.362317 31.7201 0.0106328 30.8945 0.000134755 30.0299V11.4999C-0.0037715 11.0701 0.0772832 10.6438 0.23866 10.2455C0.400159 9.84705 0.638807 9.4845 0.940809 9.17883C1.24293 8.87305 1.60231 8.63 1.99867 8.46375C2.39503 8.29736 2.82033 8.21106 3.25013 8.20984ZM35.5701 31.7198L24.5701 20.7198L24.4002 20.8499L19.5801 24.8499C19.5141 24.912 19.4376 24.9607 19.355 24.9943C19.2684 25.0294 19.1752 25.048 19.0801 25.048C18.9787 25.048 18.8793 25.0269 18.788 24.9869C18.712 24.9537 18.6416 24.9076 18.5801 24.8499L15.5001 22.2999L13.6201 20.7399L2.62013 31.7399C2.87391 31.7927 3.13136 31.8262 3.39015 31.8398H34.7201C35.0154 31.8262 35.3093 31.7928 35.6001 31.7399L35.5701 31.7198ZM1.57008 10.8099H1.49012C1.44862 11.0748 1.42201 11.3419 1.41017 11.6099V29.8198C1.41017 30.0598 1.41017 30.2999 1.47011 30.5499L12.3201 19.7198L1.57008 10.8099ZM36.5001 10.8099L25.7101 19.8099L36.5302 30.6299C36.5595 30.4476 36.5795 30.264 36.5901 30.0798V11.4999C36.5961 11.3895 36.5967 11.2798 36.5921 11.1708C36.5862 11.0361 36.5723 10.9026 36.5502 10.7699L36.5001 10.8099Z" fill="white"/>
</svg>
