<svg width="43" height="36" viewBox="0 0 43 36" fill="none" xmlns="http://www.w3.org/2000/svg">
<path d="M20.34 8.55018L23.98 4.91016L24.89 5.78016L20.34 10.3301L18 7.99012L18.91 7.12012L20.34 8.55018Z" fill="white"/>
<path fill-rule="evenodd" clip-rule="evenodd" d="M28 7.5H38.7004C39.5358 7.48621 40.3497 7.76575 41.0002 8.29017C41.6507 8.81458 42.0967 9.55066 42.2604 10.37C42.3117 10.6134 42.3385 10.8613 42.3404 11.11V31.41C42.3437 31.8836 42.2526 32.3529 42.0723 32.7908C41.892 33.2286 41.6262 33.6261 41.2903 33.96C40.6078 34.6138 39.6955 34.973 38.7504 34.96L21.4404 35.01H4.12036C3.17596 35.0208 2.26562 34.6578 1.58758 34.0004C0.909544 33.3429 0.518797 32.4442 0.500364 31.5V11.14C0.486936 10.1859 0.845579 9.26404 1.50036 8.56995C2.18231 7.91517 3.09503 7.55579 4.04034 7.56995H14.0004C13.9956 7.09046 14.04 6.60938 14.1345 6.1344C14.4046 4.77649 15.0712 3.5293 16.0502 2.5503C17.0292 1.57129 18.2765 0.904668 19.6344 0.634526C20.9922 0.364385 22.3997 0.503057 23.6788 1.03284C24.9578 1.56263 26.0511 2.45984 26.8203 3.61097C27.5895 4.76209 28 6.11548 28 7.5ZM21 14.5C19.6155 14.5 18.2621 14.0895 17.111 13.3203C15.9599 12.5512 15.0626 11.4579 14.5328 10.1788C14.394 9.84363 14.282 9.49964 14.1972 9.15003H4.20038C4.02606 9.16016 3.85241 9.18006 3.68036 9.20997H3.44037V9.29004L21.4404 24.22L39.4404 9.29004V9.19996H39.2004C39.0273 9.18494 38.8534 9.18494 38.6804 9.19996H27.7905C27.485 10.4197 26.8538 11.5457 25.9498 12.4497C24.637 13.7625 22.8565 14.5 21 14.5ZM21 1.91004C19.8984 1.91004 18.8214 2.2367 17.9055 2.84876C16.9894 3.46082 16.2756 4.33069 15.854 5.34852C15.4324 6.36634 15.3221 7.48621 15.537 8.56666C15.752 9.6471 16.2824 10.6397 17.0614 11.4186C17.8404 12.1975 18.8328 12.728 19.9133 12.943C20.9938 13.158 22.1137 13.0476 23.1315 12.626C24.1493 12.2044 25.0192 11.4906 25.6313 10.5746C26.2433 9.65857 26.57 8.58167 26.57 7.47999C26.57 6.74854 26.4259 6.0243 26.146 5.34852C25.8661 4.67273 25.4558 4.0586 24.9386 3.54139C24.4214 3.02417 23.8073 2.6139 23.1315 2.33399C22.4557 2.05408 21.7314 1.91004 21 1.91004ZM3.38037 33.26L15.4404 21.26L15.4304 21.23L17.4904 22.9301L20.8704 25.73C20.9457 25.8059 21.0352 25.8661 21.1339 25.9072C21.2326 25.9484 21.3384 25.9695 21.4454 25.9695C21.5522 25.9695 21.6581 25.9484 21.7568 25.9072C21.8555 25.8661 21.9451 25.8059 22.0204 25.73L27.3104 21.34L27.4304 21.24H27.5004L39.5904 33.26H39.2504C39.1316 33.2828 39.012 33.3003 38.8918 33.3124C38.8082 33.3208 38.7244 33.3267 38.6404 33.33H4.23034C4.03222 33.3213 3.83502 33.298 3.64038 33.26H3.38037ZM2.22033 10.36H2.31036L2.33038 10.34L14.1404 20.14L2.22033 32.04C2.22601 31.9468 2.22601 31.8533 2.22033 31.76C2.20587 31.587 2.20587 31.4131 2.22033 31.24V11.24C2.20532 11.0403 2.20532 10.8397 2.22033 10.64V10.36ZM28.8104 20.2L40.6703 10.36L40.7104 10.37C40.7083 10.4111 40.7071 10.4523 40.7068 10.4935C40.7064 10.5491 40.7076 10.6046 40.7104 10.66C40.7424 10.8248 40.7591 10.9922 40.7604 11.16V31.48C40.7204 31.6799 40.7004 31.88 40.7004 32.08L28.8104 20.2Z" fill="white"/>
</svg>
