<svg width="36" height="37" viewBox="0 0 36 37" fill="none" xmlns="http://www.w3.org/2000/svg">
<path fill-rule="evenodd" clip-rule="evenodd" d="M7.55029 30.05C7.43598 30.0503 7.32324 30.033 7.21582 29.9997C7.13092 29.9733 7.04932 29.9368 6.97278 29.8911C6.91187 29.8547 6.85419 29.8125 6.80066 29.7645C6.59461 29.58 6.46417 29.3259 6.43427 29.0509C6.40442 28.776 6.4773 28.4998 6.63892 28.2753C6.8006 28.051 7.03955 27.8944 7.30976 27.8355C7.58002 27.7768 7.86249 27.8201 8.10266 27.9571C8.3429 28.0942 8.52387 28.3153 8.61084 28.5777C8.69782 28.8403 8.68463 29.1257 8.57373 29.379C8.46289 29.6324 8.26221 29.8358 8.01032 29.9499C7.86609 30.0164 7.70911 30.0506 7.55029 30.05ZM7.55029 28.5799C7.46015 28.5799 7.37366 28.6158 7.30988 28.6795C7.24616 28.7434 7.21033 28.8299 7.21033 28.92C7.21033 29.0102 7.24616 29.0966 7.30988 29.1604C7.37366 29.2242 7.46015 29.26 7.55029 29.26H7.6803C7.7392 29.2321 7.78913 29.1883 7.82446 29.1335C7.8598 29.0788 7.87915 29.0151 7.88031 28.9499C7.89069 28.9039 7.89069 28.8562 7.88031 28.81C7.8551 28.7512 7.8133 28.7009 7.76001 28.6654C7.73468 28.6485 7.70734 28.6353 7.67865 28.6261L7.6684 28.6229L7.65961 28.6206C7.65094 28.6184 7.64221 28.6164 7.63342 28.6148C7.61597 28.6118 7.59821 28.6102 7.58032 28.6099L7.55029 28.5799Z" fill="white"/>
<path fill-rule="evenodd" clip-rule="evenodd" d="M35.7988 30.0617C35.7982 30.0511 35.7974 30.0405 35.7964 30.0299C35.7935 29.9992 35.7889 29.969 35.7827 29.939C35.7798 29.9253 35.7766 29.9115 35.773 29.8978C35.7356 29.7546 35.6606 29.6225 35.5542 29.5161C35.3967 29.3585 35.183 29.2701 34.9603 29.2701H33.0602L33.1095 29.4278L33.0603 29.29H33.0348L31.4501 24.1001L29.8615 29.29L29.8502 29.2901H26.4503V29.3204L26.4123 29.3208L24.8204 24.1001L23.1904 29.4001V29.4101H23.1403V29.3101H19.7703V29.3305L19.7426 29.3308L18.14 24.1001L16.5153 29.3901H16.5002V29.33H11.7803C11.7902 29.1635 11.7902 28.9965 11.7803 28.83C11.7803 27.6833 11.3254 26.5835 10.5156 25.7718C9.70569 24.96 8.60694 24.5026 7.46027 24.5001H7.34027V19.5001H7.25025V16.1801H7.35022V12.8001H7.22022V9.48006H7.37024L7.37012 6.39009L7.37988 6.38717V6.39009L7.53595 6.34127L7.5401 6.34005L12.7799 4.74007L7.56989 3.14009L7.37988 3.08004V3.08345L7.37012 3.08004L7.37024 6.06014L7.20026 6.12008V2.81014L7.39026 2.87008V1.07003C7.39295 0.959797 7.37341 0.850178 7.33277 0.747761C7.29212 0.645222 7.23126 0.552082 7.15381 0.473713C7.12006 0.439533 7.0835 0.408527 7.0445 0.380818C6.99396 0.345051 6.93939 0.315022 6.88184 0.291462C6.77985 0.249592 6.67047 0.228596 6.56024 0.230061H6.21027C5.44074 0.226032 4.67792 0.373737 3.96546 0.664631C3.25299 0.955402 2.60474 1.38387 2.0578 1.92525C1.51087 2.46663 1.07593 3.11031 0.777773 3.81978C0.479616 4.52925 0.32416 5.29049 0.320253 6.06014V22.1301C0.301454 23.1715 0.571901 24.1977 1.10156 25.0946C1.63123 25.9914 2.39923 26.7236 3.32025 27.21C3.13001 27.7451 3.04712 28.3125 3.07636 28.8797C3.10559 29.4469 3.2464 30.0028 3.49066 30.5155C3.73493 31.0282 4.07788 31.4876 4.49994 31.8676C4.922 32.2476 5.41486 32.5406 5.95026 32.7301C6.77619 33.0273 7.67377 33.0622 8.52027 32.83C8.98157 33.8195 9.72052 34.6536 10.6473 35.2307C11.5742 35.8077 12.6487 36.1027 13.7402 36.08H29.7902C31.3444 36.08 32.835 35.4626 33.9339 34.3637C35.0328 33.2647 35.6503 31.7741 35.6503 30.2201V29.84L35.8002 30.1101L35.7997 30.0819L35.7988 30.0617ZM4.34027 26.0301C3.6742 25.6899 3.11896 25.1667 2.73987 24.5219C2.36078 23.8772 2.17359 23.1375 2.20026 22.3901V6.39009C2.20111 5.3608 2.58081 4.36788 3.26691 3.60067C3.953 2.83333 4.89746 2.34542 5.92023 2.23006L5.77027 24.94C5.57923 25.0145 5.39789 25.1119 5.23023 25.2301C4.90289 25.4608 4.60993 25.7369 4.36023 26.0501L4.34027 26.0301ZM5.00025 28.9201C5.00629 28.415 5.16217 27.9231 5.44824 27.5067C5.73432 27.0903 6.13758 26.7681 6.60694 26.5814C7.0763 26.3945 7.59052 26.3513 8.08447 26.4572C8.57843 26.5631 9.02979 26.8133 9.38135 27.1761C9.73291 27.5389 9.96875 27.9979 10.059 28.495C10.1493 28.9919 10.0899 29.5046 9.88837 29.9679C9.68683 30.431 9.3523 30.8239 8.92713 31.0968C8.50196 31.3695 8.00531 31.5098 7.50025 31.5001C7.16583 31.5001 6.83478 31.4339 6.52594 31.3057C6.2171 31.1774 5.93665 30.9895 5.70062 30.7526C5.46466 30.5157 5.27777 30.2345 5.1507 29.9251C5.02362 29.6158 4.95893 29.2844 4.96027 28.95L5.00025 28.9201ZM32.9003 33.45C32.508 33.8454 32.0403 34.158 31.525 34.3693C31.0097 34.5805 30.4572 34.6864 29.9003 34.6801H13.8903C13.1434 34.7039 12.4052 34.5142 11.7623 34.1335C11.1193 33.7526 10.5983 33.1965 10.2603 32.5301C10.5798 32.2772 10.8626 31.981 11.1002 31.6501C11.1173 31.6241 11.1339 31.598 11.1502 31.5716L11.1784 31.5252L11.1914 31.5033L11.217 31.4589C11.2812 31.3459 11.3391 31.2295 11.3903 31.1101L34.1002 30.95C33.9981 31.8931 33.5744 32.7724 32.9003 33.44V33.45Z" fill="white"/>
<path d="M7.37012 19.6401V16.33L7.37988 16.3361V16.3003H7.46985L12.7799 17.9902L7.4599 19.6202H7.45014V19.6401H7.37012Z" fill="white"/>
<path d="M7.37012 13.0201V9.71004L7.37988 9.71602V9.68013H7.5199L12.7799 11.3601L7.49988 12.9801L7.50012 13.0201H7.37012Z" fill="white"/>
<path d="M22.55 18.2002C22.4257 18.2352 22.2942 18.2352 22.17 18.2002C22.0481 18.1572 21.9431 18.0766 21.87 17.9702L22.26 17.6901C22.3151 17.7519 22.3887 17.7941 22.47 17.8103C22.5614 17.8114 22.6501 17.7793 22.72 17.7202L22.7308 17.7132C22.7359 17.7098 22.7409 17.7063 22.7457 17.7026C22.751 17.6987 22.7562 17.6945 22.7613 17.6903C22.768 17.6847 22.7744 17.6788 22.7806 17.6726C22.789 17.6643 22.7969 17.6556 22.8044 17.6466C22.8347 17.6099 22.8572 17.5669 22.87 17.5202C22.8875 17.4862 22.8967 17.4486 22.8967 17.4102L22.8964 17.3982L22.895 17.382L22.8934 17.3707L22.8924 17.3652L22.8888 17.3494C22.8843 17.3325 22.8781 17.316 22.87 17.3003C22.853 17.2744 22.8309 17.2522 22.8052 17.2349L22.7943 17.2281L22.7822 17.2215L22.7756 17.2182L22.7675 17.2146C22.7523 17.2081 22.7363 17.2032 22.72 17.2002C22.6853 17.1915 22.6497 17.1879 22.6143 17.1894C22.5894 17.1905 22.5645 17.194 22.54 17.2002L22.28 17.2802C22.1635 17.3274 22.043 17.3641 21.92 17.3902C21.8215 17.4152 21.7184 17.4152 21.62 17.3902C21.5593 17.367 21.5031 17.3343 21.4534 17.2935C21.4298 17.2741 21.4076 17.2529 21.3871 17.2299C21.3702 17.2111 21.3545 17.1912 21.34 17.1702C21.2636 17.0725 21.2183 16.9539 21.21 16.8302C21.2087 16.7063 21.2435 16.5847 21.31 16.4802C21.3804 16.3582 21.4759 16.2528 21.59 16.1702C21.7482 16.0413 21.9459 15.9707 22.15 15.9702C22.2426 15.9731 22.3335 15.9961 22.4164 16.0374C22.4992 16.0788 22.5721 16.1378 22.63 16.2102L22.23 16.5102C22.2062 16.4797 22.1758 16.4549 22.1413 16.4376C22.1348 16.4344 22.1282 16.4314 22.1215 16.4287C22.1167 16.4267 22.1118 16.4249 22.1068 16.4233L22.0965 16.4201C22.075 16.414 22.0526 16.4107 22.03 16.4102C21.9866 16.406 21.9428 16.4108 21.9015 16.4246C21.8601 16.4384 21.8221 16.4608 21.79 16.4902C21.7568 16.5092 21.728 16.5352 21.7056 16.5662C21.6832 16.5972 21.6676 16.6328 21.66 16.6702C21.6578 16.6743 21.6557 16.6785 21.6538 16.6828L21.6503 16.6906C21.6478 16.6967 21.6456 16.703 21.6437 16.7092C21.6378 16.7288 21.6346 16.7495 21.6346 16.7702C21.6346 16.8051 21.6433 16.8394 21.66 16.8702C21.6749 16.8949 21.6953 16.9157 21.7196 16.9314C21.7438 16.947 21.7713 16.9567 21.8 16.9602C21.8556 16.9755 21.9143 16.9755 21.97 16.9602L22.23 16.8802C22.2964 16.8542 22.364 16.8311 22.4324 16.811C22.4845 16.7956 22.5371 16.7821 22.59 16.7702C22.6918 16.7452 22.7982 16.7452 22.9 16.7702C23.0173 16.8006 23.1179 16.8761 23.18 16.9802C23.2517 17.0767 23.2966 17.1908 23.31 17.3103C23.3181 17.4354 23.2903 17.5603 23.23 17.6702C23.1975 17.7297 23.1592 17.7855 23.1158 17.8369C23.0641 17.898 23.0051 17.9528 22.94 18.0002C22.8813 18.0461 22.8185 18.0861 22.7525 18.1198C22.6878 18.1528 22.62 18.1798 22.55 18.2002Z" fill="white"/>
<path fill-rule="evenodd" clip-rule="evenodd" d="M24.4276 15.5323C24.429 15.5212 24.4301 15.5101 24.431 15.4989C24.4319 15.4854 24.4325 15.472 24.4327 15.4585C24.4328 15.4467 24.4326 15.435 24.4321 15.4233L24.4315 15.4105L24.4298 15.3899V15.3498C24.4114 15.2291 24.3635 15.1148 24.2902 15.017C24.2666 14.9856 24.2406 14.9561 24.2125 14.9289L24.1936 14.9113C24.1839 14.9027 24.174 14.8942 24.1639 14.8861C24.1168 14.848 24.0651 14.8156 24.0098 14.7899C23.9478 14.7697 23.8833 14.7601 23.8189 14.7607C23.7584 14.7613 23.6981 14.7711 23.6398 14.7899C23.4877 14.822 23.3443 14.8868 23.2198 14.9798L22.5498 15.4698L23.8898 17.2999L24.2498 17.0299L23.7398 16.3298L24.0498 16.0998C24.1181 16.0521 24.1799 15.9962 24.234 15.9336C24.2825 15.8774 24.3247 15.8158 24.3598 15.7498C24.3952 15.6816 24.418 15.608 24.4276 15.5323ZM23.9198 15.3398C23.9564 15.3899 23.9796 15.448 23.9877 15.5085C23.9914 15.5352 23.9921 15.5625 23.9898 15.5898C23.9579 15.6848 23.8988 15.7683 23.8198 15.8298L23.5298 16.0399L23.1398 15.5098L23.4298 15.2999L23.4898 15.2398C23.506 15.2303 23.5228 15.2224 23.5402 15.2159C23.5666 15.206 23.5941 15.1997 23.622 15.197C23.6561 15.1938 23.6908 15.196 23.7248 15.2038C23.8049 15.2225 23.8747 15.2712 23.9198 15.3398Z" fill="white"/>
<path fill-rule="evenodd" clip-rule="evenodd" d="M26.3407 14.96L25.6107 15.5001L25.7507 15.9301L25.3707 16.21L24.6807 13.9101L25.1107 13.6001L27.1107 14.94L26.7206 15.2301L26.3407 14.96ZM26.0307 14.7401L25.2107 14.1801L25.5107 15.1801L26.0307 14.7401Z" fill="white"/>
<path d="M29.3298 13.3199L27.9897 11.5L27.5798 11.81L27.9897 13.5899L26.4197 12.65L26.0098 12.9499L27.3398 14.77L27.7098 14.51L26.8398 13.3199L28.1998 14.15L28.4697 13.9499L28.0898 12.41L28.9598 13.5899L29.3298 13.3199Z" fill="white"/>
<path d="M23.7761 13.2624L23.7404 13.2802L16.7404 14.7202C16.7009 14.729 16.6601 14.7296 16.6204 14.7221C16.5807 14.7147 16.5429 14.6993 16.5093 14.6768C16.4902 14.6641 16.4727 14.6494 16.4572 14.6329C16.4452 14.6202 16.4343 14.6064 16.4247 14.5918C16.4026 14.5581 16.3875 14.52 16.3804 14.4802C16.3759 14.4626 16.373 14.4448 16.3718 14.4268C16.3712 14.4185 16.371 14.4101 16.3712 14.4018C16.3715 14.3875 16.3727 14.3732 16.3751 14.3591C16.3819 14.3188 16.3971 14.2805 16.4197 14.2464C16.4336 14.2257 16.45 14.2069 16.4686 14.1905C16.4805 14.18 16.4932 14.1705 16.5066 14.1619C16.5412 14.1402 16.58 14.1259 16.6204 14.1202L23.5091 12.7031L27.2605 6.3199C27.3038 6.25203 27.3712 6.20321 27.449 6.18282C27.5268 6.16243 27.6094 6.17208 27.6805 6.20992C27.709 6.22811 27.7341 6.25057 27.755 6.27645C27.7839 6.31209 27.8048 6.35421 27.8156 6.39974C27.8343 6.47811 27.8217 6.56063 27.7805 6.62996L23.9705 13.13C23.9429 13.1695 23.9048 13.2006 23.8604 13.2202C23.8505 13.2271 23.8401 13.2336 23.8293 13.2395C23.8123 13.2487 23.7945 13.2565 23.7761 13.2624Z" fill="white"/>
<path fill-rule="evenodd" clip-rule="evenodd" d="M20.05 22L33.38 12.2199V12.2099C33.7197 11.9585 33.9461 11.583 34.0098 11.1651C34.0735 10.7473 33.9693 10.3212 33.72 9.97994L29.55 4.30001C29.2982 3.95809 28.9216 3.72933 28.5021 3.66378C28.0825 3.59822 27.6541 3.70113 27.31 3.94991L13.98 13.7299C13.6396 13.9832 13.413 14.3606 13.3493 14.78C13.2856 15.1994 13.3901 15.6272 13.64 15.9699L17.81 21.65C18.0618 21.9919 18.4384 22.2205 18.858 22.2861C19.2775 22.3516 19.7059 22.2489 20.05 22ZM14.1518 14.5793C14.2106 14.4819 14.2882 14.3972 14.38 14.3299L27.71 4.55001C27.801 4.48177 27.9047 4.43221 28.015 4.40425C28.0667 4.39119 28.1193 4.38301 28.1722 4.3796C28.2322 4.37581 28.2927 4.37838 28.3526 4.38729C28.3798 4.39132 28.4067 4.39669 28.4332 4.40328C28.4634 4.41085 28.4932 4.41988 28.5224 4.43062C28.5739 4.44954 28.6235 4.47335 28.6707 4.50179C28.7277 4.53621 28.7803 4.57711 28.8277 4.62337C28.8612 4.65621 28.8921 4.69185 28.92 4.72994L33.09 10.42C33.2242 10.606 33.2796 10.8375 33.244 11.064C33.2084 11.2907 33.0848 11.4941 32.9 11.63L19.58 21.41C19.394 21.5443 19.1625 21.5996 18.9359 21.5639C18.7093 21.5284 18.5059 21.4047 18.37 21.2199L14.2 15.54C14.1317 15.4491 14.0822 15.3453 14.0543 15.2349C14.0392 15.1759 14.0307 15.1154 14.0285 15.0548C14.0266 15.0023 14.0295 14.9497 14.0374 14.8974C14.0432 14.8581 14.0518 14.8193 14.0629 14.7812C14.0712 14.7528 14.0811 14.7248 14.0923 14.6975C14.109 14.6567 14.1289 14.6171 14.1518 14.5793Z" fill="white"/>
</svg>
