<svg width="43" height="41" viewBox="0 0 43 41" fill="none" xmlns="http://www.w3.org/2000/svg">
<path d="M34.9102 19.4998V14.4998C34.9121 14.2627 34.8672 14.0276 34.778 13.8079C34.6887 13.5883 34.557 13.3884 34.3903 13.2198C34.2477 13.0725 34.0767 12.9557 33.8876 12.8767C33.6985 12.7976 33.4952 12.7578 33.2902 12.7598H2.06025C1.62524 12.7907 1.21929 12.9895 0.928169 13.3142C0.637051 13.6389 0.483585 14.064 0.500252 14.4998V30.4998C0.480645 31.5603 0.834629 32.594 1.50025 33.4199C1.82379 33.8164 2.23082 34.1367 2.69233 34.358C3.15384 34.5792 3.65845 34.6959 4.17023 34.6998H16.6503V38.4299H10.9403C10.6644 38.4299 10.3999 38.5394 10.2048 38.7344C10.0098 38.9295 9.90028 39.194 9.90028 39.4698C9.90028 39.7456 10.0098 40.0102 10.2048 40.2053C10.3999 40.4003 10.6644 40.5098 10.9403 40.5098H24.4403C24.7161 40.5098 24.9806 40.4003 25.1757 40.2053C25.3707 40.0102 25.4802 39.7456 25.4802 39.4698C25.4802 39.194 25.3707 38.9295 25.1757 38.7344C24.9806 38.5394 24.7161 38.4299 24.4403 38.4299H18.7302V34.6998H31.2003C32.242 34.6228 33.2122 34.1413 33.9036 33.3583C34.595 32.5754 34.9527 31.5531 34.9003 30.5098V26.2498L34.9102 19.4998ZM33.1602 30.4998C33.2162 31.0892 33.0377 31.6768 32.6633 32.1354C32.289 32.5941 31.7489 32.8867 31.1602 32.9498H4.11024C3.85174 32.9415 3.59809 32.8775 3.36677 32.7618C3.13544 32.6461 2.93196 32.4817 2.77027 32.2799C2.35229 31.7742 2.12884 31.1357 2.14027 30.4798V27.9598H33.1403L33.1602 30.4998ZM33.1602 26.2198H2.20026V21.2198H33.2003L33.1602 26.2198ZM33.1602 19.4798H2.16022V14.4798H33.1602V19.4798Z" fill="white"/>
<path d="M11.5004 17.0299C11.5004 17.1218 11.4823 17.2128 11.4471 17.2977C11.4119 17.3827 11.3603 17.4599 11.2953 17.5249C11.2303 17.5899 11.1532 17.6415 11.0682 17.6766C10.9833 17.7118 10.8923 17.7299 10.8004 17.7299H7.35034C7.16378 17.7272 6.98579 17.6513 6.8548 17.5184C6.7238 17.3856 6.65037 17.2065 6.65039 17.0199C6.65039 16.8342 6.72413 16.6562 6.85541 16.5249C6.98668 16.3936 7.16469 16.3198 7.35034 16.3198H10.8004C10.9843 16.3198 11.1608 16.3922 11.2918 16.5214C11.4228 16.6505 11.4977 16.826 11.5004 17.0099V17.0299Z" fill="white"/>
<path d="M11.5002 23.7298C11.5002 23.8217 11.4821 23.9128 11.4469 23.9978C11.4117 24.0827 11.3602 24.1598 11.2952 24.2248C11.2302 24.2898 11.153 24.3414 11.0681 24.3765C10.9831 24.4117 10.8921 24.4299 10.8002 24.4299H7.36017C7.17452 24.4299 6.99651 24.3561 6.86523 24.2248C6.73396 24.0935 6.66016 23.9155 6.66016 23.7298C6.66016 23.5442 6.73396 23.3661 6.86523 23.2348C6.99651 23.1035 7.17452 23.0299 7.36017 23.0299H10.8002C10.8916 23.0285 10.9824 23.0453 11.0673 23.0794C11.1522 23.1135 11.2294 23.1641 11.2946 23.2283C11.3597 23.2925 11.4114 23.3691 11.4467 23.4534C11.482 23.5378 11.5002 23.6283 11.5002 23.7198V23.7298Z" fill="white"/>
<path d="M11.5004 30.5C11.5004 30.5919 11.4823 30.6829 11.4471 30.7678C11.4119 30.8528 11.3603 30.93 11.2953 30.995C11.2303 31.06 11.1532 31.1115 11.0682 31.1467C10.9833 31.1819 10.8923 31.2 10.8004 31.2H7.35034C7.16469 31.2 6.98668 31.1263 6.85541 30.995C6.72413 30.8637 6.65039 30.6857 6.65039 30.5C6.65037 30.3134 6.7238 30.1343 6.8548 30.0015C6.98579 29.8686 7.16378 29.7927 7.35034 29.79H10.8004C10.9852 29.7926 11.1618 29.8672 11.2925 29.9979C11.4232 30.1286 11.4978 30.3051 11.5004 30.49V30.5Z" fill="white"/>
<path d="M35.4999 6.90002L31.0699 11.33C31.0419 11.3574 31.0042 11.3729 30.965 11.3729C30.9257 11.3729 30.888 11.3574 30.8599 11.33L26.4999 6.90002C26.4725 6.87198 26.457 6.83431 26.457 6.79504C26.457 6.75578 26.4725 6.71798 26.4999 6.68994C26.5156 6.68275 26.5327 6.67908 26.5499 6.67908C26.5672 6.67908 26.5842 6.68275 26.5999 6.68994H30.2499V1.05005C30.2499 0.947618 30.2701 0.846099 30.3093 0.751465C30.3485 0.656831 30.406 0.570843 30.4784 0.498413C30.5508 0.425983 30.6368 0.368544 30.7314 0.329346C30.8261 0.290147 30.9275 0.27002 31.03 0.27002C31.1324 0.27002 31.2338 0.290147 31.3284 0.329346C31.4231 0.368544 31.5091 0.425983 31.5815 0.498413C31.6539 0.570843 31.7113 0.656831 31.7505 0.751465C31.7897 0.846099 31.8099 0.947618 31.8099 1.05005V6.68994H35.46C35.4981 6.68986 35.5348 6.70434 35.5626 6.73035C35.5905 6.75635 35.6074 6.79193 35.6099 6.82996C35.6239 6.8653 35.6239 6.9046 35.6099 6.93994L35.4999 6.90002Z" fill="white"/>
<path d="M42.2902 11.5001H38.6503V17.1301C38.6285 17.3231 38.5363 17.5011 38.3915 17.6305C38.2467 17.7598 38.0594 17.8314 37.8652 17.8314C37.6711 17.8314 37.4837 17.7598 37.3389 17.6305C37.1941 17.5011 37.1021 17.3231 37.0803 17.1301V11.5001H33.4302C33.4105 11.4989 33.3913 11.4937 33.3735 11.485C33.3558 11.4762 33.34 11.4641 33.327 11.4492C33.314 11.4344 33.304 11.417 33.2977 11.3983C33.2914 11.3796 33.2889 11.3598 33.2902 11.3401C33.2836 11.3242 33.2803 11.3073 33.2803 11.2902C33.2803 11.273 33.2836 11.256 33.2902 11.2401L37.7202 6.81018C37.7334 6.79528 37.7495 6.78332 37.7676 6.77515C37.7857 6.76697 37.8054 6.7627 37.8253 6.7627C37.8451 6.7627 37.8648 6.76697 37.8829 6.77515C37.901 6.78332 37.9171 6.79528 37.9302 6.81018L42.3602 11.2401C42.3751 11.2533 42.3871 11.2694 42.3953 11.2875C42.4034 11.3056 42.4077 11.3252 42.4077 11.3451C42.4077 11.365 42.4034 11.3846 42.3953 11.4027C42.3871 11.4208 42.3751 11.4369 42.3602 11.4501C42.3275 11.459 42.293 11.459 42.2603 11.4501L42.2902 11.5001Z" fill="white"/>
</svg>
