<svg width="1920" height="344" viewBox="0 0 1920 344" fill="none" xmlns="http://www.w3.org/2000/svg">
<path d="M1920.5 0H0.5V344H1920.5V0Z" fill="#FFCB05"/>
<path style="mix-blend-mode:luminosity" opacity="0.39" d="M634.81 0.419922H428.22C428.22 0.419922 150.02 223.34 0.5 343.58H193.79C329.59 239.58 634.79 0.419922 634.79 0.419922" fill="url(#paint0_linear_1_321)"/>
<path style="mix-blend-mode:luminosity" opacity="0.39" d="M1362.81 0.419922H1156.22C1156.22 0.419922 878.02 223.34 728.5 343.58H921.79C1057.59 239.58 1362.79 0.419922 1362.79 0.419922" fill="url(#paint1_linear_1_321)"/>
<path style="mix-blend-mode:luminosity" opacity="0.39" d="M878.81 0.419922H672.22C672.22 0.419922 394.02 223.34 244.5 343.58H437.79C573.59 239.58 878.79 0.419922 878.79 0.419922" fill="url(#paint2_linear_1_321)"/>
<path style="mix-blend-mode:luminosity" opacity="0.39" d="M1606.81 0.419922H1400.22C1400.22 0.419922 1122.02 223.34 972.5 343.58H1165.79C1301.59 239.58 1606.79 0.419922 1606.79 0.419922" fill="url(#paint3_linear_1_321)"/>
<path style="mix-blend-mode:luminosity" opacity="0.39" d="M1120.81 0.419922H914.22C914.22 0.419922 636.02 223.34 486.5 343.58H679.79C815.59 239.58 1120.79 0.419922 1120.79 0.419922" fill="url(#paint4_linear_1_321)"/>
<path style="mix-blend-mode:luminosity" opacity="0.39" d="M1848.81 0.419922H1642.22C1642.22 0.419922 1364.02 223.34 1214.5 343.58H1407.79C1543.59 239.58 1848.79 0.419922 1848.79 0.419922" fill="url(#paint5_linear_1_321)"/>
<defs>
<linearGradient id="paint0_linear_1_321" x1="317.676" y1="-11.1637" x2="317.676" y2="332.006" gradientUnits="userSpaceOnUse">
<stop stop-color="#2AE140" stop-opacity="0.58"/>
<stop offset="1" stop-color="#95FF99" stop-opacity="0.85"/>
</linearGradient>
<linearGradient id="paint1_linear_1_321" x1="1045.68" y1="596.247" x2="1045.68" y2="-11.1637" gradientUnits="userSpaceOnUse">
<stop stop-color="#2AE140" stop-opacity="0.58"/>
<stop offset="0.89" stop-color="#6EF479" stop-opacity="0.75"/>
<stop offset="1" stop-color="#95FF99" stop-opacity="0.85"/>
</linearGradient>
<linearGradient id="paint2_linear_1_321" x1="2.62664e+08" y1="-3.80563e+08" x2="2.62664e+08" y2="-3.80445e+08" gradientUnits="userSpaceOnUse">
<stop stop-color="#2AE140" stop-opacity="0.58"/>
<stop offset="1" stop-color="#95FF99" stop-opacity="0.85"/>
</linearGradient>
<linearGradient id="paint3_linear_1_321" x1="2.63126e+08" y1="-3.80354e+08" x2="2.63126e+08" y2="-3.80563e+08" gradientUnits="userSpaceOnUse">
<stop stop-color="#2AE140" stop-opacity="0.58"/>
<stop offset="0.89" stop-color="#6EF479" stop-opacity="0.75"/>
<stop offset="1" stop-color="#95FF99" stop-opacity="0.85"/>
</linearGradient>
<linearGradient id="paint4_linear_1_321" x1="2.62818e+08" y1="-3.80563e+08" x2="2.62818e+08" y2="-3.80445e+08" gradientUnits="userSpaceOnUse">
<stop stop-color="#2AE140" stop-opacity="0.58"/>
<stop offset="1" stop-color="#95FF99" stop-opacity="0.85"/>
</linearGradient>
<linearGradient id="paint5_linear_1_321" x1="2.6328e+08" y1="-3.80354e+08" x2="2.6328e+08" y2="-3.80563e+08" gradientUnits="userSpaceOnUse">
<stop stop-color="#2AE140" stop-opacity="0.58"/>
<stop offset="0.89" stop-color="#6EF479" stop-opacity="0.75"/>
<stop offset="1" stop-color="#95FF99" stop-opacity="0.85"/>
</linearGradient>
</defs>
</svg>
